<svg id="Layer_1" data-name="Layer 1" xmlns="http://www.w3.org/2000/svg" viewBox="0 0 1024 276.74"><defs><style>.cls-1{fill:#d1effa;}.cls-2{fill:#00a8e1;}.cls-3{fill:#232f3e;}</style></defs><path class="cls-1" d="M526.38,271.73v-.42a2.06,2.06,0,0,1,1.81-.75c3.08-.1,6.06-.1,9.14,0a2.33,2.33,0,0,1,1.8.75v.42Z"/><path class="cls-2" d="M539.13,271.31q-6.37-.17-12.75,0c-5.84-.32-11.68-.53-17.52-1a303.93,303.93,0,0,1-46-7C410.7,251.23,364.91,226.9,325,191.53c-3.72-3.3-7.23-6.7-10.84-10.1a7.84,7.84,0,0,1-2-2.86,3.91,3.91,0,0,1,.75-4.25,3.75,3.75,0,0,1,4.25-1,23.68,23.68,0,0,1,2.76,1.38,413.25,413.25,0,0,0,123.44,51,449.42,449.42,0,0,0,44.3,8A407.61,407.61,0,0,0,552,236.57a340.58,340.58,0,0,0,34.52-2.87,417.55,417.55,0,0,0,78.83-17.95,371.82,371.82,0,0,0,39.52-15.51,8.83,8.83,0,0,1,6.37-.85,6.59,6.59,0,0,1,4.78,8,7.91,7.91,0,0,1-.53,1.39,11.62,11.62,0,0,1-3.51,4,236.43,236.43,0,0,1-39.3,25,311.45,311.45,0,0,1-83.18,28.15,366,366,0,0,1-50.36,5.42ZM381.8,56c2.66-1.59,5.42-3.29,8.29-4.78a47.55,47.55,0,0,1,24.11-5.31c6.06.32,11.58,2,15.83,6.48,4,4.14,5.53,9.24,6,14.77.11,1.17.11,2.33.11,3.61v55c0,4.78-.64,5.42-5.42,5.42h-13a19.78,19.78,0,0,1-2.55-.11,2.93,2.93,0,0,1-2.55-2.44,19.7,19.7,0,0,1-.21-3.51V75.94a18.18,18.18,0,0,0-.64-5.84,8,8,0,0,0-7.22-5.84,37.54,37.54,0,0,0-18.28,3.5A1.75,1.75,0,0,0,385,69.68v55.88a15.25,15.25,0,0,1-.21,3.08,2.55,2.55,0,0,1-2.66,2.55c-1.59.1-3.19.1-4.89.1H366c-3.93,0-4.78-.95-4.78-4.88V76.16a24.11,24.11,0,0,0-.53-5.53,8,8,0,0,0-7.44-6.37,37.37,37.37,0,0,0-18.59,3.61,1.68,1.68,0,0,0-1.16,2v56.62c0,3.93-.85,4.78-4.79,4.78H314.45c-3.72,0-4.67-1.06-4.67-4.67V52.89a10.59,10.59,0,0,1,.31-2.55,3.11,3.11,0,0,1,3-2h13.28c1.91,0,3.08,1.17,3.72,3,.53,1.49.85,2.87,1.38,4.46,1.06,0,1.7-.74,2.44-1.17,5.84-3.61,12-6.69,18.91-8a40.3,40.3,0,0,1,15.93,0,19.94,19.94,0,0,1,12.33,8.29,4,4,0,0,0,.64.74c-.11.11,0,.11.1.32Z"/><path class="cls-3" d="M602,108.88c.64-2.13,1.28-4.15,1.91-6.27,4.89-16.47,9.78-32.83,14.66-49.29l.64-1.91a4.34,4.34,0,0,1,4.25-3.09h16.15c4,0,4.89,1.17,3.5,5l-6.37,16.89c-7.12,18.48-14.24,37.07-21.35,55.56-.22.64-.53,1.27-.75,1.91a5.18,5.18,0,0,1-5.31,3.51q-7-.16-14,0c-3.29.1-5.21-1.39-6.37-4.36-2.66-7-5.42-14.13-8.08-21.14C574.51,89,568,72.33,561.65,55.55a19.55,19.55,0,0,1-1.38-4.14c-.32-2.13.43-3.19,2.55-3.19,6.06-.11,12.11,0,18.06,0,2.55,0,3.72,1.7,4.36,3.93,1.17,4,2.33,8.18,3.61,12.22,4.35,14.76,8.6,29.63,13,44.4-.11.11,0,.11.21.11Z"/><path class="cls-2" d="M224.79,60a3.22,3.22,0,0,0,1.81-1.27,72.41,72.41,0,0,1,6.05-5.42A28.26,28.26,0,0,1,252,47.47c2.77.11,3.72,1,3.94,3.62.21,3.61.1,7.33.1,10.94a19.81,19.81,0,0,1-.21,4.35c-.43,1.92-1.17,2.66-3.08,2.87a30.24,30.24,0,0,1-4.36-.1c-7.11-.64-14,.74-20.71,3-1.49.53-1.49,1.59-1.49,2.76v51a23.33,23.33,0,0,1-.11,2.77,2.55,2.55,0,0,1-2.55,2.44,16.53,16.53,0,0,1-2.33.11H207.37a16.6,16.6,0,0,1-2.34-.11,2.86,2.86,0,0,1-2.55-2.66,19.78,19.78,0,0,1-.11-2.55V53.64c0-4.89.54-5.42,5.42-5.42H218c2.76,0,4,1,4.78,3.61S224.15,57.14,224.79,60Zm497,107.72c7,.21,13.91.64,20.71,2.44a34.56,34.56,0,0,1,5.53,2,7.18,7.18,0,0,1,4.35,5.84,43.47,43.47,0,0,1,.32,9.14,117.1,117.1,0,0,1-16.36,51.31A70.83,70.83,0,0,1,724,253.67a8.86,8.86,0,0,1-3.4,2.13c-2,.53-3.3-.53-3.4-2.55a11.52,11.52,0,0,1,.74-3.19c3.72-10,7.33-19.87,10.2-30.17a105.07,105.07,0,0,0,3.61-17.21,32.3,32.3,0,0,0,.11-6.37,8.29,8.29,0,0,0-6-7.76,41.14,41.14,0,0,0-10.2-1.91,167.62,167.62,0,0,0-29.21,1.27l-12.86,1.6c-1.38.1-2.65,0-3.4-1.28a3.6,3.6,0,0,1,.32-3.82,10.69,10.69,0,0,1,3.19-3c7.86-5.63,16.68-9,26-11.26A127.07,127.07,0,0,1,721.75,167.73Z"/><path class="cls-3" d="M677.23,89.76V128c-.21,2.12-1.16,3.08-3.29,3.19-5.73.1-11.37.1-17.1,0-2.13,0-3.08-1.07-3.29-3.08a12.5,12.5,0,0,1-.11-2V52.57c.11-3.29.95-4.25,4.25-4.25H673c3.29,0,4.25,1,4.25,4.25Z"/><path class="cls-2" d="M266.22,89.54V51.83c.11-2.55,1.06-3.51,3.61-3.61q8.3-.16,16.57,0c2.45,0,3.19.74,3.4,3.19a23.08,23.08,0,0,1,.11,2.76v70.75c0,1.17-.11,2.34-.21,3.5a2.66,2.66,0,0,1-2.55,2.45,11,11,0,0,1-1.81.1H270.58a7.42,7.42,0,0,1-1.49-.1,3.08,3.08,0,0,1-2.87-2.76,19.78,19.78,0,0,1-.11-2.55c.11-11.8.11-23.91.11-36Zm12.32-79.35a13.27,13.27,0,0,1,5,.74c5.73,1.91,8.71,6.91,8.18,13.39a11.87,11.87,0,0,1-10.1,10.83,19.76,19.76,0,0,1-7.11,0C268.45,34,264,29.52,264.41,21.87,265.05,14.33,270,10.19,278.54,10.19Z"/><path class="cls-3" d="M665.44,10.19a12.76,12.76,0,0,1,6.27,1.06,11.17,11.17,0,0,1,7.22,9.88c.85,9.67-5.63,14.55-14.23,14.34a20,20,0,0,1-3.51-.42c-6.58-1.6-10-6.7-9.34-14,.53-5.84,5.09-10.2,11.36-10.73A8,8,0,0,1,665.44,10.19Z"/><path class="cls-2" d="M186.65,80.83a48.26,48.26,0,0,0-4.14-15.93c-4.36-9.14-11-15.83-21.25-18.17-11.68-2.55-22.2,0-31.76,7.12a8.36,8.36,0,0,1-2.23,1.59c-.21-.1-.43-.21-.43-.32-.32-1.06-.53-2.12-.85-3.18-.85-2.66-1.91-3.62-4.78-3.62-3.18,0-6.48.11-9.66,0-2.45-.1-4.68.22-6.38,2.13,0,37.18,0,74.47.11,111.54,1.38,2.23,3.5,2.66,6,2.55,3.82-.1,7.65,0,11.47,0,6.69,0,6.69,0,6.69-6.58V127.68c0-.74-.32-1.59.43-2.23a35.72,35.72,0,0,0,18.48,7.33c9.35,1,17.85-1.38,25-7.76a39.25,39.25,0,0,0,11-17.74C187.18,98.57,187.4,89.76,186.65,80.83Zm-25.39,22a16.33,16.33,0,0,1-4.88,8.5A15.15,15.15,0,0,1,146.6,115a29.13,29.13,0,0,1-15.51-3.4,3,3,0,0,1-1.8-3V89.44c0-6.38.1-12.75,0-19.13A3.22,3.22,0,0,1,131.41,67c5.84-2.76,11.9-4,18.27-2.76a13,13,0,0,1,10.09,7.65,29.73,29.73,0,0,1,2.77,10.83C163.17,89.54,163.17,96.34,161.26,102.82Z"/><path class="cls-3" d="M955.14,97.4Zm.11-14.23v.42a1.52,1.52,0,0,1-.43-1.59v-.85a.11.11,0,0,1,.11-.11h-.11V80H955c0-.1-.1-.1-.1-.21a37.73,37.73,0,0,0-1.17-6c-3.93-14-12.75-23.26-27.09-26.88a52.31,52.31,0,0,0-20.29-.74C892,48.32,881.73,56,876.74,69.57a56.8,56.8,0,0,0,.11,40.16c4.25,11.79,12.74,19.23,25,22.31a52.81,52.81,0,0,0,20,1.06c22.31-2.66,31.55-19.55,33-34.21h-.11V97.4c-.1-.63-.21-1.16.43-1.59V96a.83.83,0,0,1,.21-.42V83.38c0-.11-.1-.11-.1-.21Zm-25.5,20.18a19.5,19.5,0,0,1-3,6.16,13.76,13.76,0,0,1-10.1,5.74,19.53,19.53,0,0,1-6-.21,13.68,13.68,0,0,1-10-8,30.45,30.45,0,0,1-2.87-10.52c-.53-6.26-.63-12.53.85-18.69a24,24,0,0,1,2.87-7,13.85,13.85,0,0,1,10.84-6.59,19.52,19.52,0,0,1,6,.21A13.68,13.68,0,0,1,928.05,72a31.29,31.29,0,0,1,3.08,12,52.32,52.32,0,0,1,.11,5.74,38.87,38.87,0,0,1-1.49,13.59ZM769,10.93H754.25c-4,0-4.78.74-4.78,4.78V50.13c0,.74.32,1.49-.21,2.23-1-.11-1.49-.74-2.23-1.17-11-6.48-22.63-7.65-34.31-2.23-8.18,3.83-13.28,10.73-16.58,18.91C693,75.73,692.21,84,692.43,92.41A50.55,50.55,0,0,0,697.74,115c4,7.75,9.88,13.7,18.38,16.25,11.58,3.61,22.41,1.81,32.29-5.52.74-.43,1.17-1.17,2.13-1.38a15,15,0,0,1,1.16,3.72,3.78,3.78,0,0,0,3.72,2.86H758c3.83,0,7.54.11,11.26,0,3,0,3.83-.95,3.93-4V15c-.1-3.3-.95-4-4.14-4ZM749.58,89.12v19.33a2.79,2.79,0,0,1-1.7,3,26.24,26.24,0,0,1-16.68,3.18,14.55,14.55,0,0,1-11.37-7.86,29.46,29.46,0,0,1-3-10.73,55,55,0,0,1,1.27-20,24.75,24.75,0,0,1,2.13-5.2,13.7,13.7,0,0,1,11.15-7.12,32.06,32.06,0,0,1,16.36,2.87,2.93,2.93,0,0,1,1.92,3.08c-.22,6.58-.11,13-.11,19.44Z"/><path class="cls-2" d="M474.86,96.45a70.8,70.8,0,0,0,24.12.32,39.05,39.05,0,0,0,13.28-4.25c4.78-2.76,8.28-6.59,9.77-11.9,3.72-13.39-2-26.88-15.94-31.87a47.49,47.49,0,0,0-21.14-2c-16.78,1.91-27.72,11.16-32.72,27.2-3.5,10.94-3.08,22.09-.21,33.14,3.72,14.13,13.07,22.52,27.2,25.5,8.07,1.8,16.25,1.48,24.32.21a64.45,64.45,0,0,0,12.54-3.4c2.44-1,3.72-2.44,3.61-5.21-.1-2.55,0-5.2,0-7.86,0-3.18-1.27-4.14-4.35-3.4s-6.06,1.38-9.14,2a52.62,52.62,0,0,1-20,.21c-9-1.8-14.87-9.56-14.34-19.12C472.84,96.13,473.91,96.24,474.86,96.45Zm-2.65-16.26a28.75,28.75,0,0,1,2-7.33c3.19-7.75,9.88-10.41,16.68-10a17.24,17.24,0,0,1,5.63,1.27,8.12,8.12,0,0,1,4.89,6.7,12.18,12.18,0,0,1-.32,5.52c-1.27,3.82-4.35,5.42-8.07,6.16a21.59,21.59,0,0,1-6.91.53,83.9,83.9,0,0,1-12.53-1c-1.6-.22-1.6-.22-1.38-1.92Z"/><path class="cls-3" d="M833.18,97.51c6.17-.42,12.33-1.59,17.85-4.57a19.76,19.76,0,0,0,10.73-14.13,29.08,29.08,0,0,0-.1-11.68c-2.24-9.56-8.29-15.51-17.43-18.59a46.9,46.9,0,0,0-15.83-2c-17.84.42-31.44,9.45-37,27.3-3.72,11.79-3.19,23.8.42,35.59,3.72,12.11,12.22,19.44,24.33,22.73a57.49,57.49,0,0,0,15.93,1.6A67.66,67.66,0,0,0,855,129.38c3.08-1.17,3.83-2.23,3.83-5.52v-7.65c-.11-3.08-1.38-4.15-4.47-3.4-2.33.64-4.56,1.17-6.9,1.7a53.65,53.65,0,0,1-21.78.74c-7.22-1.38-12.11-5.52-14-12.75A43.28,43.28,0,0,1,810.45,96a3.3,3.3,0,0,1,1.49.22A84.05,84.05,0,0,0,833.18,97.51Zm-22.2-17c.75-4.14,1.7-8.18,4.25-11.58,3.93-5.2,9.35-6.69,15.51-6.05.53,0,1,.21,1.49.21,7.43,1.17,9.24,7.12,7.86,12.85-1.06,4.25-4.57,5.85-8.5,6.59a26.69,26.69,0,0,1-6.59.53A101.52,101.52,0,0,1,812.15,82c-1-.11-1.38-.53-1.17-1.49Z"/></svg>