<svg id="svg40450" xmlns="http://www.w3.org/2000/svg" viewBox="0 0 3000 2933.21"><defs><style>.cls-1{fill:#f90;}.cls-1,.cls-2{fill-rule:evenodd;}</style></defs><path class="cls-1" d="M1849.69,1836.06c-168.76,124.55-413.45,190.79-624.14,190.79-295.3,0-561.2-109.14-762.44-290.85-15.79-14.26-1.7-33.76,17.29-22.71,217.1,126.34,485.57,202.42,762.88,202.42,187,0,392.68-38.81,581.88-119.06C1853.7,1784.54,1877.62,1815.45,1849.69,1836.06Z"/><path class="cls-1" d="M1919.93,1755.9c-21.59-27.65-142.7-13.11-197.11-6.6-16.47,2-19-12.41-4.17-22.84,96.6-67.86,254.9-48.26,273.29-25.56,18.54,22.93-4.85,181.63-95.4,257.38-13.92,11.65-27.16,5.44-21-10C1895.92,1897.45,1941.53,1783.54,1919.93,1755.9Z"/><path class="cls-2" d="M1726.67,1247.11v-65.93a16.29,16.29,0,0,1,16.71-16.71l295.51,0c9.45,0,17,6.88,17,16.66l0,56.54c-.07,9.48-8.06,21.87-22.25,41.51L1880.6,1497.7c56.83-1.33,116.93,7.17,168.55,36.19,11.65,6.54,14.76,16.24,15.68,25.74V1630c0,9.7-10.61,20.91-21.75,15.07-91-47.64-211.67-52.85-312.24.58-10.28,5.48-21-5.57-21-15.28v-66.87c0-10.7.2-29,11-45.32l177.35-254.42-154.41,0C1734.3,1263.71,1726.73,1257,1726.67,1247.11Z"/><path class="cls-2" d="M648.72,1658.92h-89.9a17,17,0,0,1-16.09-15.2l.06-461.42c0-9.23,7.77-16.61,17.35-16.61l83.73,0c8.76.45,15.79,7.08,16.35,15.49v60.24h1.68c21.82-58.26,62.94-85.44,118.32-85.44,56.23,0,91.47,27.18,116.66,85.44,21.81-58.26,71.32-85.44,124.2-85.44,37.76,0,78.88,15.53,104.06,50.49,28.53,38.84,22.66,95.15,22.66,144.67l-.07,291.19c0,9.22-7.77,16.61-17.34,16.61h-89.8c-9-.58-16.14-7.73-16.14-16.57l0-244.62c0-19.42,1.68-68-2.52-86.42-6.71-31.07-26.85-39.81-52.86-39.81-21.82,0-44.49,14.57-53.72,37.87s-8.38,62.14-8.38,88.36v244.58c0,9.22-7.77,16.61-17.34,16.61h-89.8c-9-.58-16.14-7.73-16.14-16.57l-.09-244.62c0-51.46,8.39-127.2-55.38-127.2-64.63,0-62.11,73.8-62.11,127.2l0,244.58C666.06,1651.53,658.3,1658.92,648.72,1658.92Z"/><path class="cls-2" d="M2310.32,1156c133.44,0,205.6,114.57,205.6,260.22,0,140.78-79.71,252.46-205.6,252.46-130.91,0-202.25-114.58-202.25-257.31C2108.07,1267.62,2180.24,1156,2310.32,1156Zm.84,94.18c-66.31,0-70.5,90.3-70.5,146.62s-.83,176.72,69.66,176.72c69.67,0,73-97.1,73-156.33,0-38.84-1.67-85.45-13.42-122.34C2359.83,1262.77,2339.68,1250.14,2311.16,1250.14Z"/><path class="cls-2" d="M2689,1658.92H2599.4c-9-.58-16.13-7.73-16.13-16.57l-.14-461.6c.75-8.44,8.2-15.06,17.26-15.06l83.4,0a17.08,17.08,0,0,1,16,12.92v70.58h1.7c25.17-63.11,60.41-93.21,122.51-93.21,40.27,0,79.73,14.56,104.91,54.37,23.5,36.9,23.5,99,23.5,143.71v290.34c-1,8.18-8.35,14.54-17.23,14.54H2845a17,17,0,0,1-16-14.54V1393.85c0-50.49,5.87-124.29-56.23-124.29-21.83,0-42,14.57-52,36.9-12.59,28.15-14.28,56.32-14.28,87.39v248.46C2706.32,1651.53,2698.55,1658.92,2689,1658.92Z"/><path class="cls-2" d="M1491.09,1438.56c0,35,.84,64.23-16.82,95.37-14.3,25.3-37,40.87-62.24,40.87-34.48,0-54.67-26.28-54.67-65.2,0-76.57,68.69-90.5,133.73-90.5Zm90.64,219.2c-6,5.34-14.53,5.7-21.25,2.09-29.85-24.81-35.2-36.29-51.52-59.91-49.36,50.27-84.31,65.35-148.23,65.35-75.69,0-134.56-46.71-134.56-140.12,0-73,39.52-122.61,95.87-146.94,48.78-21.41,116.91-25.3,169-31.14v-11.68c0-21.4,1.69-46.71-10.93-65.19-10.94-16.55-32-23.36-50.46-23.36-34.29,0-64.78,17.57-72.27,54-1.55,8.1-7.46,16.11-15.61,16.52l-87.14-9.43c-7.36-1.65-15.54-7.56-13.41-18.79,20-105.72,115.49-137.65,201-137.65,43.73,0,100.93,11.67,135.4,44.76,43.74,40.87,39.53,95.37,39.53,154.73v140.06c0,42.13,17.51,60.62,33.94,83.32,5.74,8.18,7,17.91-.3,23.88-18.36,15.39-51,43.74-68.94,59.71Z"/><path class="cls-2" d="M312.54,1438.56c0,35,.84,64.23-16.82,95.37-14.3,25.3-37,40.87-62.24,40.87-34.47,0-54.66-26.28-54.66-65.2,0-76.57,68.68-90.5,133.72-90.5Zm90.64,219.2c-5.95,5.34-14.54,5.7-21.24,2.09-29.87-24.81-35.22-36.29-51.54-59.91-49.34,50.27-84.3,65.35-148.21,65.35-75.7,0-134.57-46.71-134.57-140.12,0-73,39.53-122.61,95.87-146.94,48.78-21.41,116.91-25.3,169.05-31.14v-11.68c0-21.4,1.68-46.71-10.93-65.19-10.93-16.55-32-23.36-50.46-23.36-34.29,0-64.78,17.57-72.26,54-1.56,8.1-7.47,16.11-15.63,16.52l-87.13-9.43c-7.36-1.65-15.54-7.56-13.41-18.79,20-105.72,115.48-137.65,201-137.65,43.74,0,100.92,11.67,135.41,44.76,43.73,40.87,39.52,95.37,39.52,154.73v140.06c0,42.13,17.5,60.62,33.93,83.32,5.74,8.18,7,17.91-.29,23.88-18.36,15.39-51,43.74-68.94,59.71Z"/></svg>