<svg version="1.1" id="Layer_1" xmlns="http://www.w3.org/2000/svg" xmlns:xlink="http://www.w3.org/1999/xlink" x="0px" y="0px"
	 width="100%" viewBox="0 0 2009 805" enable-background="new 0 0 2009 805" xml:space="preserve">
<path fill="#FFFFFF" opacity="1.000000" stroke="none" 
	d="
M1382.000000,806.000000 
	C921.333435,806.000000 461.166840,806.000000 1.000185,806.000000 
	C1.000124,537.666809 1.000124,269.333588 1.000062,1.000293 
	C670.666443,1.000196 1340.332886,1.000196 2009.999512,1.000098 
	C2009.999634,269.333038 2009.999634,537.666077 2009.999756,805.999512 
	C1800.833374,806.000000 1591.666626,806.000000 1382.000000,806.000000 
M269.000000,431.493591 
	C270.860474,421.144562 272.720947,410.795532 274.581421,400.446503 
	C276.045929,403.516815 276.619293,406.772736 277.478973,409.951202 
	C284.940002,437.536682 292.768860,465.029144 299.697998,492.746857 
	C301.186157,498.699890 303.088776,500.605835 308.916565,500.108276 
	C314.707245,499.613892 320.573120,500.000000 326.406006,500.000000 
	C338.212036,500.000000 350.018066,500.000000 361.594055,500.000000 
	C370.516541,466.788605 379.325104,434.001251 388.364227,400.355743 
	C394.852875,434.189087 401.157074,467.060822 407.450958,499.878662 
	C427.712463,499.878662 447.693115,499.878662 467.740387,499.878662 
	C465.241669,488.060242 462.769592,476.371796 460.299347,464.683014 
	C456.865936,448.436920 453.372162,432.203217 450.017670,415.940826 
	C446.204407,397.454468 442.588654,378.927307 438.753174,360.445618 
	C434.921143,341.980896 430.974060,323.539337 426.885132,305.130310 
	C426.612366,303.902283 424.721863,302.144501 423.569366,302.133453 
	C404.239288,301.947479 384.906250,301.938873 365.576630,302.148010 
	C364.371338,302.161041 362.451660,304.109650 362.103760,305.473816 
	C353.283875,340.058960 344.641754,374.689362 335.933624,409.303070 
	C334.700287,414.205444 333.287231,419.062622 331.597443,425.260925 
	C321.009094,383.260620 310.773285,342.658630 300.523193,302.000061 
	C280.278687,302.000061 260.287109,301.941284 240.297775,302.123840 
	C238.867645,302.136902 236.490875,303.682343 236.191727,304.913269 
	C234.515930,311.808350 233.417603,318.841064 231.984360,325.798401 
	C228.535217,342.541504 225.041397,359.275635 221.506302,376.000824 
	C217.706757,393.977203 213.815933,411.934326 210.008591,429.909088 
	C206.367142,447.100647 202.751907,464.297882 199.187943,481.505646 
	C197.936661,487.547211 196.871887,493.627411 195.689545,499.860840 
	C216.293686,499.860840 235.926559,499.860840 255.785477,499.860840 
	C258.207123,486.940094 260.543304,474.097961 263.038239,461.286682 
	C264.919250,451.627838 267.003571,442.008575 269.000000,431.493591 
M697.500000,500.000000 
	C707.496033,500.000000 717.496765,499.803406 727.486938,500.044617 
	C743.782959,500.438080 759.578125,498.169067 774.718323,491.982422 
	C786.843872,487.027649 797.464233,479.729858 805.676147,469.588287 
	C819.561890,452.439728 825.365845,432.062744 826.885315,410.458160 
	C827.796570,397.501617 826.885254,384.520050 823.999573,371.765350 
	C819.610535,352.365753 810.593140,335.537231 795.160095,322.805969 
	C777.615662,308.333008 756.515259,302.769226 734.379395,302.189117 
	C705.078125,301.421295 675.741699,301.996643 646.420349,302.010040 
	C644.991577,302.010681 643.562927,302.158142 642.292358,302.228485 
	C642.292358,368.353058 642.292358,434.072754 642.292358,500.000000 
	C660.555969,500.000000 678.527954,500.000000 697.500000,500.000000 
M1442.952393,382.444794 
	C1441.301758,390.152649 1438.773193,397.795441 1438.196411,405.582825 
	C1437.213135,418.857422 1437.779541,432.201202 1441.005737,445.260376 
	C1444.445557,459.184174 1449.909790,472.147797 1459.531616,483.016357 
	C1474.621704,500.061615 1494.195068,506.038635 1516.188721,504.857269 
	C1525.505981,504.356781 1534.698364,501.956146 1542.330200,496.057281 
	C1547.356323,492.172485 1551.946289,487.723267 1557.121948,483.184479 
	C1557.121948,488.929169 1557.121948,494.329041 1557.121948,499.752930 
	C1574.569336,499.752930 1591.635986,499.752930 1608.780029,499.752930 
	C1608.780029,433.788177 1608.780029,368.070679 1608.780029,302.215790 
	C1590.493408,302.215790 1572.427368,302.215790 1553.966187,302.215790 
	C1553.966187,319.464966 1553.966187,336.503845 1553.966187,354.799255 
	C1550.797485,351.492889 1548.721680,348.629333 1546.002686,346.649017 
	C1541.618042,343.455475 1537.079712,340.198639 1532.123047,338.122620 
	C1522.174316,333.955872 1511.755615,333.003906 1500.835815,333.799683 
	C1485.572021,334.912079 1472.664551,340.537537 1461.734131,350.855438 
	C1452.734741,359.350494 1447.157837,370.093475 1442.952393,382.444794 
M1212.682983,418.027222 
	C1206.655396,422.360443 1201.838257,427.643280 1198.968384,434.635620 
	C1194.762451,444.883667 1194.040527,455.346985 1195.946167,466.214050 
	C1198.461426,480.556488 1205.831299,491.497467 1218.815430,497.875977 
	C1237.658081,507.132507 1257.343018,506.842651 1277.225342,501.363312 
	C1287.596069,498.505280 1296.872192,493.675903 1304.618530,486.188416 
	C1305.301758,489.725494 1305.989136,492.888580 1306.507446,496.079102 
	C1307.026611,499.274750 1308.730225,500.326813 1311.946167,500.071136 
	C1315.755493,499.768280 1319.607178,500.000000 1323.440552,500.000000 
	C1336.471313,500.000000 1349.502075,500.000000 1361.961548,500.000000 
	C1360.254883,492.289276 1357.402710,484.967987 1357.212036,477.577972 
	C1356.384521,445.505798 1356.574219,413.408569 1355.902344,381.330719 
	C1355.546509,364.347931 1347.680054,351.379028 1332.533813,343.170044 
	C1316.553711,334.509216 1298.890991,333.771362 1281.429565,333.233032 
	C1271.725098,332.933868 1261.877930,334.559265 1252.219360,336.097992 
	C1236.809082,338.553040 1222.834473,344.384766 1212.718872,356.885437 
	C1205.299561,366.054077 1201.549927,376.672516 1202.052734,388.830078 
	C1219.066040,388.830078 1235.689209,388.830078 1251.457275,388.830078 
	C1254.544678,383.737488 1256.545898,378.077209 1260.453247,374.497467 
	C1267.884521,367.689301 1277.699341,367.771881 1286.886841,369.662262 
	C1291.956177,370.705292 1297.198608,373.520508 1301.118164,376.956665 
	C1307.822021,382.833771 1304.856812,394.587219 1296.307617,397.108337 
	C1289.232788,399.194672 1281.947266,400.685883 1274.668213,401.933167 
	C1263.478516,403.850555 1252.159912,405.036194 1240.998291,407.089081 
	C1231.168457,408.897034 1221.612549,411.803650 1212.682983,418.027222 
M1126.086060,389.575867 
	C1127.390747,395.677979 1129.738403,401.765808 1129.822388,407.884674 
	C1130.220215,436.872437 1130.000000,465.868713 1130.000000,494.861938 
	C1130.000000,496.472687 1130.000000,498.083435 1130.000000,499.760315 
	C1148.549438,499.760315 1166.618408,499.760315 1185.000000,499.760315 
	C1185.000000,497.892426 1185.000000,496.260254 1185.000000,494.628082 
	C1185.000000,461.969025 1184.988037,429.309967 1185.007080,396.650909 
	C1185.013062,386.333557 1183.694580,376.257721 1180.008301,366.551849 
	C1174.242554,351.370819 1163.759155,341.468414 1148.026001,336.903320 
	C1137.429688,333.828705 1126.807739,332.935974 1115.851929,333.942200 
	C1100.343262,335.366638 1087.680054,341.826508 1077.978394,354.047272 
	C1077.063843,355.199371 1075.982666,356.219147 1074.978638,357.300293 
	C1074.620972,357.118958 1074.263184,356.937622 1073.905518,356.756256 
	C1073.905518,350.555481 1073.905518,344.354675 1073.905518,338.309540 
	C1055.976196,338.309540 1038.572632,338.309540 1021.300659,338.309540 
	C1021.300659,392.349457 1021.300659,446.079376 1021.300659,499.699371 
	C1039.339355,499.699371 1057.075928,499.699371 1074.833130,499.699371 
	C1074.906494,498.920715 1074.986938,498.438202 1074.992432,497.954803 
	C1075.332275,468.044556 1075.561157,438.132507 1076.064697,408.225067 
	C1076.213501,399.393707 1079.479004,391.262634 1085.644775,385.069061 
	C1096.101074,374.565704 1118.311157,374.935638 1126.086060,389.575867 
M902.518616,503.003510 
	C906.507385,503.669006 910.514404,504.984344 914.481384,504.872986 
	C924.649902,504.587463 934.940674,504.503510 944.929321,502.828644 
	C966.021729,499.291962 982.667053,488.255707 995.073181,470.704926 
	C1002.886719,459.651215 1007.250427,447.466064 1009.082092,434.133881 
	C1011.003235,420.150055 1010.750122,406.260895 1006.831116,392.744110 
	C1003.450867,381.085541 998.022888,370.414520 989.804382,361.069458 
	C982.027100,352.226166 972.902710,345.600922 962.258789,341.050049 
	C947.423767,334.707275 931.903992,331.914703 915.783264,334.056488 
	C907.623779,335.140564 899.105103,335.626526 891.500854,338.425720 
	C855.697876,351.605194 839.239441,379.754059 837.174133,414.369720 
	C836.671570,422.793640 837.476929,431.522003 839.171021,439.805603 
	C843.293823,459.964264 853.106628,476.830597 870.195251,489.060425 
	C879.758362,495.904388 890.270996,500.365265 902.518616,503.003510 
M1732.561279,333.000000 
	C1722.079956,334.340179 1711.483398,335.103912 1701.147827,337.172638 
	C1689.348145,339.534485 1678.217163,344.436798 1669.689941,353.050201 
	C1657.058594,365.809540 1655.358643,381.643463 1659.869629,398.331543 
	C1663.764038,412.739136 1674.566772,420.730682 1687.908569,424.830414 
	C1702.471069,429.305237 1717.524902,432.157166 1732.267944,436.079559 
	C1739.494385,438.002167 1747.031982,439.786011 1753.483887,443.345520 
	C1763.035767,448.615295 1761.956299,459.961517 1752.259644,465.315094 
	C1744.072876,469.835052 1735.380737,471.366425 1726.536743,468.676208 
	C1717.134644,465.816223 1709.723877,460.498718 1708.850342,449.357147 
	C1708.756714,448.162842 1706.793091,446.158813 1705.676514,446.144653 
	C1689.219238,445.935944 1672.758301,446.000916 1655.702759,446.000916 
	C1656.190796,448.828033 1656.729980,451.156372 1656.977905,453.515289 
	C1658.646851,469.388580 1665.732666,482.031708 1679.086426,491.012543 
	C1693.833618,500.930603 1710.655884,504.259155 1727.841919,504.741882 
	C1739.872070,505.079803 1752.080811,503.699188 1764.007324,501.809052 
	C1776.662231,499.803528 1788.456909,494.692169 1798.213135,486.151398 
	C1810.476929,475.415436 1815.561035,461.624084 1815.134644,445.257202 
	C1814.723267,429.464233 1803.211548,414.132660 1789.110718,407.897064 
	C1775.754028,401.990509 1761.374512,400.950226 1747.388794,398.010864 
	C1737.643311,395.962677 1727.783081,394.256348 1719.097290,388.975464 
	C1715.660400,386.885864 1712.827393,384.241119 1712.982422,379.652100 
	C1713.130615,375.263733 1715.855835,372.632294 1719.452759,371.296387 
	C1729.082764,367.719757 1738.958740,367.634888 1748.552124,371.296448 
	C1755.390625,373.906525 1757.436768,380.170990 1758.146606,386.730652 
	C1774.949219,386.730652 1791.369385,386.730652 1808.150024,386.730652 
	C1807.749023,367.159943 1799.700439,352.464996 1782.552979,343.216431 
	C1767.248779,334.962036 1750.334595,334.091370 1732.561279,333.000000 
M550.880676,463.028564 
	C548.733276,463.019104 546.565857,463.196411 544.441833,462.968689 
	C533.715149,461.818665 526.318542,455.468353 522.216309,446.197052 
	C514.878357,429.612579 515.555908,412.406586 521.045898,395.374207 
	C525.648621,381.094391 537.231262,373.895752 554.199341,375.096130 
	C563.789490,375.774597 574.683167,381.934052 577.496826,397.771057 
	C594.934021,397.771057 612.371216,397.771057 630.143921,397.771057 
	C629.658997,394.142395 629.536499,390.697693 628.708313,387.431915 
	C622.533325,363.081970 607.054077,347.200043 583.586304,339.071747 
	C570.327698,334.479553 556.636414,332.151276 542.520264,334.011810 
	C535.456787,334.942841 528.201050,335.252655 521.395325,337.147339 
	C499.836273,343.149353 483.487793,355.940613 472.969696,375.980469 
	C462.691193,395.563751 460.920990,416.404633 464.094208,437.756195 
	C467.913177,463.452484 481.715576,482.810577 504.647339,494.708923 
	C522.120300,503.774963 541.023926,506.718994 560.879211,504.165070 
	C574.212524,502.450012 586.782227,499.118683 598.117554,491.937683 
	C610.048096,484.379608 619.572449,474.406219 624.869324,461.161499 
	C628.048767,453.211456 630.112671,444.815277 632.821167,436.162048 
	C613.936768,436.162048 596.155945,436.162048 578.394043,436.162048 
	C576.479370,452.578796 566.127686,462.953339 550.880676,463.028564 
M1402.500000,302.000000 
	C1392.735474,302.000000 1382.970947,302.000000 1373.285400,302.000000 
	C1373.285400,368.310272 1373.285400,434.044281 1373.285400,499.712097 
	C1391.643555,499.712097 1409.714844,499.712097 1427.714600,499.712097 
	C1427.714600,433.689758 1427.714600,367.955750 1427.714600,302.000000 
	C1419.454102,302.000000 1411.477051,302.000000 1402.500000,302.000000 
M1667.991699,302.000946 
	C1651.749023,302.000946 1635.506470,302.000946 1619.233887,302.000946 
	C1619.233887,320.242004 1619.233887,337.958923 1619.233887,355.837036 
	C1628.233521,355.837036 1636.999878,355.837036 1645.539307,355.837036 
	C1646.044312,354.615570 1646.426270,353.563507 1646.903564,352.556671 
	C1653.844116,337.915924 1660.858765,323.309570 1667.674438,308.611023 
	C1668.584595,306.648071 1668.502930,304.225189 1667.991699,302.000946 
M1806.254272,302.995300 
	C1800.942505,301.015533 1794.478638,302.785431 1791.427856,307.055084 
	C1787.786987,312.150543 1788.135620,319.602966 1792.251099,324.658936 
	C1794.784058,327.770447 1802.667969,328.881500 1807.299805,327.263306 
	C1812.253540,325.532623 1814.471558,322.031219 1814.985962,317.146027 
	C1815.674805,310.602234 1813.315796,305.702911 1806.254272,302.995300 
z"/>
<path fill="#000000" opacity="1.000000" stroke="none" 
	d="
M268.998688,431.932617 
	C267.003571,442.008575 264.919250,451.627838 263.038239,461.286682 
	C260.543304,474.097961 258.207123,486.940094 255.785477,499.860840 
	C235.926559,499.860840 216.293686,499.860840 195.689545,499.860840 
	C196.871887,493.627411 197.936661,487.547211 199.187943,481.505646 
	C202.751907,464.297882 206.367142,447.100647 210.008591,429.909088 
	C213.815933,411.934326 217.706757,393.977203 221.506302,376.000824 
	C225.041397,359.275635 228.535217,342.541504 231.984360,325.798401 
	C233.417603,318.841064 234.515930,311.808350 236.191727,304.913269 
	C236.490875,303.682343 238.867645,302.136902 240.297775,302.123840 
	C260.287109,301.941284 280.278687,302.000061 300.523193,302.000061 
	C310.773285,342.658630 321.009094,383.260620 331.597443,425.260925 
	C333.287231,419.062622 334.700287,414.205444 335.933624,409.303070 
	C344.641754,374.689362 353.283875,340.058960 362.103760,305.473816 
	C362.451660,304.109650 364.371338,302.161041 365.576630,302.148010 
	C384.906250,301.938873 404.239288,301.947479 423.569366,302.133453 
	C424.721863,302.144501 426.612366,303.902283 426.885132,305.130310 
	C430.974060,323.539337 434.921143,341.980896 438.753174,360.445618 
	C442.588654,378.927307 446.204407,397.454468 450.017670,415.940826 
	C453.372162,432.203217 456.865936,448.436920 460.299347,464.683014 
	C462.769592,476.371796 465.241669,488.060242 467.740387,499.878662 
	C447.693115,499.878662 427.712463,499.878662 407.450958,499.878662 
	C401.157074,467.060822 394.852875,434.189087 388.364227,400.355743 
	C379.325104,434.001251 370.516541,466.788605 361.594055,500.000000 
	C350.018066,500.000000 338.212036,500.000000 326.406006,500.000000 
	C320.573120,500.000000 314.707245,499.613892 308.916565,500.108276 
	C303.088776,500.605835 301.186157,498.699890 299.697998,492.746857 
	C292.768860,465.029144 284.940002,437.536682 277.478973,409.951202 
	C276.619293,406.772736 276.045929,403.516815 274.581421,400.446503 
	C272.720947,410.795532 270.860474,421.144562 268.998688,431.932617 
z"/>
<path fill="#000000" opacity="1.000000" stroke="none" 
	d="
M697.000000,500.000000 
	C678.527954,500.000000 660.555969,500.000000 642.292358,500.000000 
	C642.292358,434.072754 642.292358,368.353058 642.292358,302.228485 
	C643.562927,302.158142 644.991577,302.010681 646.420349,302.010040 
	C675.741699,301.996643 705.078125,301.421295 734.379395,302.189117 
	C756.515259,302.769226 777.615662,308.333008 795.160095,322.805969 
	C810.593140,335.537231 819.610535,352.365753 823.999573,371.765350 
	C826.885254,384.520050 827.796570,397.501617 826.885315,410.458160 
	C825.365845,432.062744 819.561890,452.439728 805.676147,469.588287 
	C797.464233,479.729858 786.843872,487.027649 774.718323,491.982422 
	C759.578125,498.169067 743.782959,500.438080 727.486938,500.044617 
	C717.496765,499.803406 707.496033,500.000000 697.000000,500.000000 
M700.000000,410.500000 
	C700.000000,424.919434 700.000000,439.338837 700.000000,454.865723 
	C713.207458,453.878204 725.907959,453.668671 738.354065,451.781403 
	C749.868347,450.035522 758.647339,442.875885 762.819824,431.981293 
	C769.070312,415.660553 769.882080,398.619110 765.941406,381.554535 
	C762.796265,367.934967 755.576172,357.247284 742.013733,352.061401 
	C728.378113,346.847534 714.171753,349.673767 700.000000,348.964020 
	C700.000000,369.576111 700.000000,389.538055 700.000000,410.500000 
z"/>
<path fill="#000000" opacity="1.000000" stroke="none" 
	d="
M1442.975342,382.032593 
	C1447.157837,370.093475 1452.734741,359.350494 1461.734131,350.855438 
	C1472.664551,340.537537 1485.572021,334.912079 1500.835815,333.799683 
	C1511.755615,333.003906 1522.174316,333.955872 1532.123047,338.122620 
	C1537.079712,340.198639 1541.618042,343.455475 1546.002686,346.649017 
	C1548.721680,348.629333 1550.797485,351.492889 1553.966187,354.799255 
	C1553.966187,336.503845 1553.966187,319.464966 1553.966187,302.215790 
	C1572.427368,302.215790 1590.493408,302.215790 1608.780029,302.215790 
	C1608.780029,368.070679 1608.780029,433.788177 1608.780029,499.752930 
	C1591.635986,499.752930 1574.569336,499.752930 1557.121948,499.752930 
	C1557.121948,494.329041 1557.121948,488.929169 1557.121948,483.184479 
	C1551.946289,487.723267 1547.356323,492.172485 1542.330200,496.057281 
	C1534.698364,501.956146 1525.505981,504.356781 1516.188721,504.857269 
	C1494.195068,506.038635 1474.621704,500.061615 1459.531616,483.016357 
	C1449.909790,472.147797 1444.445557,459.184174 1441.005737,445.260376 
	C1437.779541,432.201202 1437.213135,418.857422 1438.196411,405.582825 
	C1438.773193,397.795441 1441.301758,390.152649 1442.975342,382.032593 
M1556.000000,415.632629 
	C1555.327759,410.484436 1555.208374,405.186218 1553.861084,400.221191 
	C1551.495850,391.505554 1547.611206,383.399963 1539.234253,378.776031 
	C1522.126221,369.332703 1502.750977,376.972900 1495.937500,396.537964 
	C1491.698120,408.711731 1491.378296,421.041107 1494.110962,433.342102 
	C1497.944702,450.599823 1507.161621,465.532288 1529.818237,463.084015 
	C1538.039673,462.195679 1547.805420,454.749207 1551.075928,446.655731 
	C1555.001221,436.941406 1556.299927,426.933624 1556.000000,415.632629 
z"/>
<path fill="#000000" opacity="1.000000" stroke="none" 
	d="
M1213.052612,417.994781 
	C1221.612549,411.803650 1231.168457,408.897034 1240.998291,407.089081 
	C1252.159912,405.036194 1263.478516,403.850555 1274.668213,401.933167 
	C1281.947266,400.685883 1289.232788,399.194672 1296.307617,397.108337 
	C1304.856812,394.587219 1307.822021,382.833771 1301.118164,376.956665 
	C1297.198608,373.520508 1291.956177,370.705292 1286.886841,369.662262 
	C1277.699341,367.771881 1267.884521,367.689301 1260.453247,374.497467 
	C1256.545898,378.077209 1254.544678,383.737488 1251.457275,388.830078 
	C1235.689209,388.830078 1219.066040,388.830078 1202.052734,388.830078 
	C1201.549927,376.672516 1205.299561,366.054077 1212.718872,356.885437 
	C1222.834473,344.384766 1236.809082,338.553040 1252.219360,336.097992 
	C1261.877930,334.559265 1271.725098,332.933868 1281.429565,333.233032 
	C1298.890991,333.771362 1316.553711,334.509216 1332.533813,343.170044 
	C1347.680054,351.379028 1355.546509,364.347931 1355.902344,381.330719 
	C1356.574219,413.408569 1356.384521,445.505798 1357.212036,477.577972 
	C1357.402710,484.967987 1360.254883,492.289276 1361.961548,500.000000 
	C1349.502075,500.000000 1336.471313,500.000000 1323.440552,500.000000 
	C1319.607178,500.000000 1315.755493,499.768280 1311.946167,500.071136 
	C1308.730225,500.326813 1307.026611,499.274750 1306.507446,496.079102 
	C1305.989136,492.888580 1305.301758,489.725494 1304.618530,486.188416 
	C1296.872192,493.675903 1287.596069,498.505280 1277.225342,501.363312 
	C1257.343018,506.842651 1237.658081,507.132507 1218.815430,497.875977 
	C1205.831299,491.497467 1198.461426,480.556488 1195.946167,466.214050 
	C1194.040527,455.346985 1194.762451,444.883667 1198.968384,434.635620 
	C1201.838257,427.643280 1206.655396,422.360443 1213.052612,417.994781 
M1302.004028,448.419434 
	C1302.899414,441.041321 1303.794922,433.663208 1304.788696,425.474548 
	C1301.164673,426.596252 1298.922241,427.417603 1296.617065,427.982239 
	C1285.541382,430.695129 1274.364380,433.036316 1263.388916,436.101990 
	C1254.523071,438.578369 1249.950439,445.517639 1250.000000,454.762817 
	C1250.039673,462.162781 1254.311523,467.756409 1263.502319,469.883820 
	C1269.089844,471.177155 1275.288574,471.199585 1280.992310,470.336914 
	C1292.843628,468.544495 1299.091309,460.390961 1302.004028,448.419434 
z"/>
<path fill="#000000" opacity="1.000000" stroke="none" 
	d="
M1126.033936,389.190125 
	C1118.311157,374.935638 1096.101074,374.565704 1085.644775,385.069061 
	C1079.479004,391.262634 1076.213501,399.393707 1076.064697,408.225067 
	C1075.561157,438.132507 1075.332275,468.044556 1074.992432,497.954803 
	C1074.986938,498.438202 1074.906494,498.920715 1074.833130,499.699371 
	C1057.075928,499.699371 1039.339355,499.699371 1021.300659,499.699371 
	C1021.300659,446.079376 1021.300659,392.349457 1021.300659,338.309540 
	C1038.572632,338.309540 1055.976196,338.309540 1073.905518,338.309540 
	C1073.905518,344.354675 1073.905518,350.555481 1073.905518,356.756256 
	C1074.263184,356.937622 1074.620972,357.118958 1074.978638,357.300293 
	C1075.982666,356.219147 1077.063843,355.199371 1077.978394,354.047272 
	C1087.680054,341.826508 1100.343262,335.366638 1115.851929,333.942200 
	C1126.807739,332.935974 1137.429688,333.828705 1148.026001,336.903320 
	C1163.759155,341.468414 1174.242554,351.370819 1180.008301,366.551849 
	C1183.694580,376.257721 1185.013062,386.333557 1185.007080,396.650909 
	C1184.988037,429.309967 1185.000000,461.969025 1185.000000,494.628082 
	C1185.000000,496.260254 1185.000000,497.892426 1185.000000,499.760315 
	C1166.618408,499.760315 1148.549438,499.760315 1130.000000,499.760315 
	C1130.000000,498.083435 1130.000000,496.472687 1130.000000,494.861938 
	C1130.000000,465.868713 1130.220215,436.872437 1129.822388,407.884674 
	C1129.738403,401.765808 1127.390747,395.677979 1126.033936,389.190125 
z"/>
<path fill="#000000" opacity="1.000000" stroke="none" 
	d="
M902.082642,503.000793 
	C890.270996,500.365265 879.758362,495.904388 870.195251,489.060425 
	C853.106628,476.830597 843.293823,459.964264 839.171021,439.805603 
	C837.476929,431.522003 836.671570,422.793640 837.174133,414.369720 
	C839.239441,379.754059 855.697876,351.605194 891.500854,338.425720 
	C899.105103,335.626526 907.623779,335.140564 915.783264,334.056488 
	C931.903992,331.914703 947.423767,334.707275 962.258789,341.050049 
	C972.902710,345.600922 982.027100,352.226166 989.804382,361.069458 
	C998.022888,370.414520 1003.450867,381.085541 1006.831116,392.744110 
	C1010.750122,406.260895 1011.003235,420.150055 1009.082092,434.133881 
	C1007.250427,447.466064 1002.886719,459.651215 995.073181,470.704926 
	C982.667053,488.255707 966.021729,499.291962 944.929321,502.828644 
	C934.940674,504.503510 924.649902,504.587463 914.481384,504.872986 
	C910.514404,504.984344 906.507385,503.669006 902.082642,503.000793 
M892.000000,413.649200 
	C891.964661,423.764679 892.148499,433.671631 895.676025,443.548889 
	C900.566101,457.241608 912.269287,464.897430 925.277039,463.865112 
	C940.726257,462.639008 948.491699,455.062286 952.955933,439.934082 
	C956.561707,427.715332 956.789551,415.303802 954.006470,402.847687 
	C951.316467,390.808075 946.110352,378.385101 929.478577,375.293579 
	C919.368408,373.414368 909.594604,375.640289 902.559448,383.272339 
	C895.130127,391.332062 892.508240,401.795746 892.000000,413.649200 
z"/>
<path fill="#000000" opacity="1.000000" stroke="none" 
	d="
M1733.030762,333.000000 
	C1750.334595,334.091370 1767.248779,334.962036 1782.552979,343.216431 
	C1799.700439,352.464996 1807.749023,367.159943 1808.150024,386.730652 
	C1791.369385,386.730652 1774.949219,386.730652 1758.146606,386.730652 
	C1757.436768,380.170990 1755.390625,373.906525 1748.552124,371.296448 
	C1738.958740,367.634888 1729.082764,367.719757 1719.452759,371.296387 
	C1715.855835,372.632294 1713.130615,375.263733 1712.982422,379.652100 
	C1712.827393,384.241119 1715.660400,386.885864 1719.097290,388.975464 
	C1727.783081,394.256348 1737.643311,395.962677 1747.388794,398.010864 
	C1761.374512,400.950226 1775.754028,401.990509 1789.110718,407.897064 
	C1803.211548,414.132660 1814.723267,429.464233 1815.134644,445.257202 
	C1815.561035,461.624084 1810.476929,475.415436 1798.213135,486.151398 
	C1788.456909,494.692169 1776.662231,499.803528 1764.007324,501.809052 
	C1752.080811,503.699188 1739.872070,505.079803 1727.841919,504.741882 
	C1710.655884,504.259155 1693.833618,500.930603 1679.086426,491.012543 
	C1665.732666,482.031708 1658.646851,469.388580 1656.977905,453.515289 
	C1656.729980,451.156372 1656.190796,448.828033 1655.702759,446.000916 
	C1672.758301,446.000916 1689.219238,445.935944 1705.676514,446.144653 
	C1706.793091,446.158813 1708.756714,448.162842 1708.850342,449.357147 
	C1709.723877,460.498718 1717.134644,465.816223 1726.536743,468.676208 
	C1735.380737,471.366425 1744.072876,469.835052 1752.259644,465.315094 
	C1761.956299,459.961517 1763.035767,448.615295 1753.483887,443.345520 
	C1747.031982,439.786011 1739.494385,438.002167 1732.267944,436.079559 
	C1717.524902,432.157166 1702.471069,429.305237 1687.908569,424.830414 
	C1674.566772,420.730682 1663.764038,412.739136 1659.869629,398.331543 
	C1655.358643,381.643463 1657.058594,365.809540 1669.689941,353.050201 
	C1678.217163,344.436798 1689.348145,339.534485 1701.147827,337.172638 
	C1711.483398,335.103912 1722.079956,334.340179 1733.030762,333.000000 
z"/>
<path fill="#000000" opacity="1.000000" stroke="none" 
	d="
M551.318237,463.015320 
	C566.127686,462.953339 576.479370,452.578796 578.394043,436.162048 
	C596.155945,436.162048 613.936768,436.162048 632.821167,436.162048 
	C630.112671,444.815277 628.048767,453.211456 624.869324,461.161499 
	C619.572449,474.406219 610.048096,484.379608 598.117554,491.937683 
	C586.782227,499.118683 574.212524,502.450012 560.879211,504.165070 
	C541.023926,506.718994 522.120300,503.774963 504.647339,494.708923 
	C481.715576,482.810577 467.913177,463.452484 464.094208,437.756195 
	C460.920990,416.404633 462.691193,395.563751 472.969696,375.980469 
	C483.487793,355.940613 499.836273,343.149353 521.395325,337.147339 
	C528.201050,335.252655 535.456787,334.942841 542.520264,334.011810 
	C556.636414,332.151276 570.327698,334.479553 583.586304,339.071747 
	C607.054077,347.200043 622.533325,363.081970 628.708313,387.431915 
	C629.536499,390.697693 629.658997,394.142395 630.143921,397.771057 
	C612.371216,397.771057 594.934021,397.771057 577.496338,397.766968 
	C574.683167,381.934052 563.789490,375.774597 554.199341,375.096130 
	C537.231262,373.895752 525.648621,381.094391 521.045898,395.374207 
	C515.555908,412.406586 514.878357,429.612579 522.216309,446.197052 
	C526.318542,455.468353 533.715149,461.818665 544.441833,462.968689 
	C546.565857,463.196411 548.733276,463.019104 551.318237,463.015320 
z"/>
<path fill="#000000" opacity="1.000000" stroke="none" 
	d="
M1403.000000,302.000000 
	C1411.477051,302.000000 1419.454102,302.000000 1427.714600,302.000000 
	C1427.714600,367.955750 1427.714600,433.689758 1427.714600,499.712097 
	C1409.714844,499.712097 1391.643555,499.712097 1373.285400,499.712097 
	C1373.285400,434.044281 1373.285400,368.310272 1373.285400,302.000000 
	C1382.970947,302.000000 1392.735474,302.000000 1403.000000,302.000000 
z"/>
<path fill="#000000" opacity="1.000000" stroke="none" 
	d="
M1668.436157,302.008118 
	C1668.502930,304.225189 1668.584595,306.648071 1667.674438,308.611023 
	C1660.858765,323.309570 1653.844116,337.915924 1646.903564,352.556671 
	C1646.426270,353.563507 1646.044312,354.615570 1645.539307,355.837036 
	C1636.999878,355.837036 1628.233521,355.837036 1619.233887,355.837036 
	C1619.233887,337.958923 1619.233887,320.242004 1619.233887,302.000946 
	C1635.506470,302.000946 1651.749023,302.000946 1668.436157,302.008118 
z"/>
<path fill="#000000" opacity="1.000000" stroke="none" 
	d="
M1806.659424,303.007019 
	C1813.315796,305.702911 1815.674805,310.602234 1814.985962,317.146027 
	C1814.471558,322.031219 1812.253540,325.532623 1807.299805,327.263306 
	C1802.667969,328.881500 1794.784058,327.770447 1792.251099,324.658936 
	C1788.135620,319.602966 1787.786987,312.150543 1791.427856,307.055084 
	C1794.478638,302.785431 1800.942505,301.015533 1806.659424,303.007019 
M1793.298706,310.168518 
	C1791.225952,314.959167 1791.982910,319.482758 1795.645264,322.962524 
	C1798.452881,325.630066 1802.111084,326.813171 1806.208862,324.167908 
	C1804.429077,321.670532 1802.688232,319.227905 1800.746704,316.503510 
	C1799.973389,319.302795 1799.418091,321.313324 1798.862671,323.323883 
	C1798.223755,323.181213 1797.584717,323.038544 1796.945801,322.895874 
	C1796.945801,317.740356 1796.945801,312.584839 1796.945801,307.429321 
	C1796.585205,307.245605 1796.224609,307.061859 1795.863892,306.878143 
	C1795.209473,307.802063 1794.555054,308.726013 1793.298706,310.168518 
M1810.003174,319.466095 
	C1810.180420,316.444458 1810.357666,313.422821 1810.534912,310.401184 
	C1810.255127,310.403168 1809.975342,310.405182 1809.695557,310.407196 
	C1808.590454,312.671295 1807.485352,314.935394 1806.248535,317.469360 
	C1806.725220,318.494354 1807.396729,319.938385 1808.068359,321.382355 
	C1808.711670,321.019745 1809.355103,320.657104 1810.003174,319.466095 
z"/>
<path fill="#FFFFFF" opacity="1.000000" stroke="none" 
	d="
M700.000000,410.000000 
	C700.000000,389.538055 700.000000,369.576111 700.000000,348.964020 
	C714.171753,349.673767 728.378113,346.847534 742.013733,352.061401 
	C755.576172,357.247284 762.796265,367.934967 765.941406,381.554535 
	C769.882080,398.619110 769.070312,415.660553 762.819824,431.981293 
	C758.647339,442.875885 749.868347,450.035522 738.354065,451.781403 
	C725.907959,453.668671 713.207458,453.878204 700.000000,454.865723 
	C700.000000,439.338837 700.000000,424.919434 700.000000,410.000000 
z"/>
<path fill="#FFFFFF" opacity="1.000000" stroke="none" 
	d="
M1556.000000,416.114716 
	C1556.299927,426.933624 1555.001221,436.941406 1551.075928,446.655731 
	C1547.805420,454.749207 1538.039673,462.195679 1529.818237,463.084015 
	C1507.161621,465.532288 1497.944702,450.599823 1494.110962,433.342102 
	C1491.378296,421.041107 1491.698120,408.711731 1495.937500,396.537964 
	C1502.750977,376.972900 1522.126221,369.332703 1539.234253,378.776031 
	C1547.611206,383.399963 1551.495850,391.505554 1553.861084,400.221191 
	C1555.208374,405.186218 1555.327759,410.484436 1556.000000,416.114716 
z"/>
<path fill="#FFFFFF" opacity="1.000000" stroke="none" 
	d="
M1302.001343,448.847595 
	C1299.091309,460.390961 1292.843628,468.544495 1280.992310,470.336914 
	C1275.288574,471.199585 1269.089844,471.177155 1263.502319,469.883820 
	C1254.311523,467.756409 1250.039673,462.162781 1250.000000,454.762817 
	C1249.950439,445.517639 1254.523071,438.578369 1263.388916,436.101990 
	C1274.364380,433.036316 1285.541382,430.695129 1296.617065,427.982239 
	C1298.922241,427.417603 1301.164673,426.596252 1304.788696,425.474548 
	C1303.794922,433.663208 1302.899414,441.041321 1302.001343,448.847595 
z"/>
<path fill="#FFFFFF" opacity="1.000000" stroke="none" 
	d="
M892.000000,413.170471 
	C892.508240,401.795746 895.130127,391.332062 902.559448,383.272339 
	C909.594604,375.640289 919.368408,373.414368 929.478577,375.293579 
	C946.110352,378.385101 951.316467,390.808075 954.006470,402.847687 
	C956.789551,415.303802 956.561707,427.715332 952.955933,439.934082 
	C948.491699,455.062286 940.726257,462.639008 925.277039,463.865112 
	C912.269287,464.897430 900.566101,457.241608 895.676025,443.548889 
	C892.148499,433.671631 891.964661,423.764679 892.000000,413.170471 
z"/>
<path fill="#FFFFFF" opacity="1.000000" stroke="none" 
	d="
M1793.599609,309.909241 
	C1794.555054,308.726013 1795.209473,307.802063 1795.863892,306.878143 
	C1796.224609,307.061859 1796.585205,307.245605 1796.945801,307.429321 
	C1796.945801,312.584839 1796.945801,317.740356 1796.945801,322.895874 
	C1797.584717,323.038544 1798.223755,323.181213 1798.862671,323.323883 
	C1799.418091,321.313324 1799.973389,319.302795 1800.746704,316.503510 
	C1802.688232,319.227905 1804.429077,321.670532 1806.208862,324.167908 
	C1802.111084,326.813171 1798.452881,325.630066 1795.645264,322.962524 
	C1791.982910,319.482758 1791.225952,314.959167 1793.599609,309.909241 
z"/>
<path fill="#FFFFFF" opacity="1.000000" stroke="none" 
	d="
M1810.000732,319.880310 
	C1809.355103,320.657104 1808.711670,321.019745 1808.068359,321.382385 
	C1807.396729,319.938385 1806.725220,318.494354 1806.248535,317.469360 
	C1807.485352,314.935394 1808.590454,312.671295 1809.695557,310.407196 
	C1809.975342,310.405182 1810.255127,310.403168 1810.534912,310.401184 
	C1810.357666,313.422821 1810.180420,316.444458 1810.000732,319.880310 
z"/>
</svg>