<svg id="Layer_1" data-name="Layer 1" xmlns="http://www.w3.org/2000/svg" viewBox="0 0 55 55"><path d="M12.76,40.73s28.9,5.16,32.79-20.63c0,0,5,3,6.36,11.47s-4.57,12.11-4.57,12.11l3.79,3.68s2.11,1.69-.79,3-24.79-.52-24.79-.52S16.34,46.94,12.76,40.73Z"/><path d="M26.47,3.15S16,.69,7,7.64C-2.81,17.9,3.07,27.21,3.07,27.21l2.35,3.42L1.89,34.69s-1.7,1.6.11,2.78H23.16s18.7-1.09,19-17.42C42.2,6.36,26.47,3.15,26.47,3.15Zm0,20.37a1.26,1.26,0,0,1-1.26,1.27H11.8a1.26,1.26,0,0,1-1.25-1.27V23a1.25,1.25,0,0,1,1.25-1.26H25.21A1.25,1.25,0,0,1,26.47,23Zm6.77-6.61a1.5,1.5,0,0,1-1.51,1.5H12.05a1.5,1.5,0,0,1-1.5-1.5v-.05a1.5,1.5,0,0,1,1.5-1.5H31.73a1.51,1.51,0,0,1,1.51,1.5Z"/></svg>