<svg xmlns="http://www.w3.org/2000/svg" xmlns:xlink="http://www.w3.org/1999/xlink" viewBox="0 0 837.29 565.48"><defs><style>.cls-1{clip-rule:evenodd;}.cls-2{fill-rule:evenodd;}.cls-3{clip-path:url(#clip-path);}</style><clipPath id="clip-path"><path class="cls-1" d="M509.66,459.54h-182V188.25l91-64.88,91,64.88ZM715,393v60.9c-45.14-5.06-118.47,52.61-93.43,91.46,13,20.17,54.46,16.59,83-1.79s39.29-37.9,40.34-56.62h0v-.6c0-1,0-2,0-3V81c32.56.64,82.86,7.19,92.42-81C774.55,71.15,718.16,22.38,715.1,74.46H715v77.21L684.3,130v-.09L528.83,20.1l-8.73-6.16-8.72,6.22L418.64,86.27,325.91,20.16l-8.73-6.22-8.72,6.16L153,129.92V130l-30.66,21.66V74.46h-.15C119.13,22.38,62.74,71.15,0,0,9.56,88.16,59.85,81.61,92.42,81V483.34c0,1,0,2,0,3v.6h0c1,18.72,11.83,38.25,40.34,56.62s70,22,83,1.79c25-38.85-48.29-96.52-93.43-91.46V393h.4V188.32L317.13,51l75.5,53.82L303.72,168.2l-6.39,4.56V489.83H540V172.76l-6.39-4.56-88.9-63.39L520.16,51l194.4,137.33V393Z"/></clipPath></defs><g id="Layer_2" data-name="Layer 2"><g id="Layer_1-2" data-name="Layer 1"><path class="cls-2" d="M509.66,459.54h-182V188.25l91-64.88,91,64.88ZM715,393v60.9c-45.14-5.06-118.47,52.61-93.43,91.46,13,20.17,54.46,16.59,83-1.79s39.29-37.9,40.34-56.62h0v-.6c0-1,0-2,0-3V81c32.56.64,82.86,7.19,92.42-81C774.55,71.15,718.16,22.38,715.1,74.46H715v77.21L684.3,130v-.09L528.83,20.1l-8.73-6.16-8.72,6.22L418.64,86.27,325.91,20.16l-8.73-6.22-8.72,6.16L153,129.92V130l-30.66,21.66V74.46h-.15C119.13,22.38,62.74,71.15,0,0,9.56,88.16,59.85,81.61,92.42,81V483.34c0,1,0,2,0,3v.6h0c1,18.72,11.83,38.25,40.34,56.62s70,22,83,1.79c25-38.85-48.29-96.52-93.43-91.46V393h.4V188.32L317.13,51l75.5,53.82L303.72,168.2l-6.39,4.56V489.83H540V172.76l-6.39-4.56-88.9-63.39L520.16,51l194.4,137.33V393Z"/><g class="cls-3"><rect width="837.29" height="565.48"/></g></g></g></svg>