<svg xmlns="http://www.w3.org/2000/svg" viewBox="0 0 285.42 368.64"><defs><style>.cls-1{fill-rule:evenodd;}</style></defs><g id="Layer_2" data-name="Layer 2"><g id="Layer_1-2" data-name="Layer 1"><path d="M142.7,0A75.68,75.68,0,1,1,89.2,22.16,75.44,75.44,0,0,1,142.7,0Z"/><path d="M59,293.62H5.67v0H5.49A5.67,5.67,0,0,1,0,287.76c.12-3.55.2-7.06.29-10.66.47-19.52,1-41.78,6-59C10.6,203,18.48,191,33.15,180.23c14-10.22,34.21-19.18,63.75-28.59a5.65,5.65,0,0,1,5.3.68,69.9,69.9,0,0,0,81,0h0a5.63,5.63,0,0,1,4.79-.85c32.55,9.09,53.79,18.83,67.89,30.55,14.61,12.15,21.49,26.18,25,43.5,3.25,15.91,3.72,34.54,4.16,51.72.08,3.35.17,6.65.28,10.06q0,.32,0,.66a5.68,5.68,0,0,1-5.68,5.68H226.36V283.51a23.48,23.48,0,0,0-14.31-21.57,23.49,23.49,0,0,0-5.13-25.37L196.8,226.45a23.49,23.49,0,0,0-25.37-5.13A23.48,23.48,0,0,0,149.86,207H135.55A23.48,23.48,0,0,0,114,221.32a23.49,23.49,0,0,0-25.37,5.13L78.49,236.57a23.48,23.48,0,0,0-5.14,25.37A23.48,23.48,0,0,0,59,283.51Z"/><path class="cls-1" d="M64.73,297.82a17.75,17.75,0,0,0,17.73,17.73h.16l-.11.11a17.77,17.77,0,0,0,0,25.08l10.12,10.12a17.76,17.76,0,0,0,25.07,0l.12-.11v.16a17.75,17.75,0,0,0,17.73,17.73h14.31a17.75,17.75,0,0,0,17.73-17.73v-.16l.11.11a17.77,17.77,0,0,0,25.08,0l10.12-10.12a17.77,17.77,0,0,0,0-25.08l-.11-.11h.15a17.77,17.77,0,0,0,17.74-17.73V283.51a17.77,17.77,0,0,0-17.74-17.73h-.15l.11-.11a17.77,17.77,0,0,0,0-25.08l-10.12-10.12a17.77,17.77,0,0,0-25.08,0l-.11.11v-.15a17.77,17.77,0,0,0-17.73-17.74H135.55a17.77,17.77,0,0,0-17.73,17.74v.15l-.12-.11a17.76,17.76,0,0,0-25.07,0L82.51,240.59a17.77,17.77,0,0,0,0,25.08l.11.11h-.16a17.75,17.75,0,0,0-17.73,17.73v14.31Zm99.9,12a31,31,0,1,1,9.08-21.92A30.93,30.93,0,0,1,164.63,309.86Z"/></g></g></svg>