<svg id="Layer_1" data-name="Layer 1" xmlns="http://www.w3.org/2000/svg" viewBox="0 0 840 231"><defs><style>.cls-1{fill:#fff;}</style></defs><path d="M207.53,156.12v10.37h-15c-.29-8.59-.46-17.19-.9-25.77-.9-17.48-2.49-34.89-6.57-51.95a133.23,133.23,0,0,0-4.39-13.71,19.91,19.91,0,0,0-2.86-5.13c-3.05-4.07-6.66-4.19-9.58,0a41.17,41.17,0,0,0-4.81,9.61C158.67,93,156.74,106.94,155.6,121c-.94,11.65-1.25,23.35-1.84,35,0,.86-.14,1.71-.23,2.77H138.61c-.27-7.5-.39-14.91-.83-22.3-1.17-19.43-2.71-38.83-9.15-57.41a37,37,0,0,0-5.18-9.75c-2.63-3.55-6.19-3.41-8.63.32a46.11,46.11,0,0,0-5.09,10.56c-4.24,12.83-6.26,26.15-7.27,39.55-1.12,14.81-1.52,29.68-2.24,44.52,0,.64-.12,1.28-.2,2.18H84.73c0-2.83-.08-5.64,0-8.44C85.6,134.15,88,110.48,95.9,87.74a127.25,127.25,0,0,1,7.83-16.9A28,28,0,0,1,109,64.16c6.61-6.6,14.09-6.63,20.85-.21,6.11,5.8,9.56,13.23,12.56,20.9,1.31,3.34,2.38,6.77,3.79,10.81a60.67,60.67,0,0,1,2.16-6.33Q153.48,78.59,158.89,68a13.54,13.54,0,0,1,2.52-3c7.71-7.89,16.25-7.72,23.45.65s10.93,18.6,13.92,29C204.5,114.62,206.93,135.09,207.53,156.12Z"/><path d="M261.58,144.27c-3-10.89-5.81-21.52-8.75-32.44-2.13,11.12-4.22,22-6.35,33.14H227.15c4.46-21.32,8.9-42.55,13.39-64h20.61c3.33,13.18,6.7,26.57,10.27,40.69,3.52-14,6.87-27.24,10.28-40.73h20.58q6.66,31.75,13.43,64H296.39c-2.06-10.71-4.16-21.56-6.37-33-2.9,10.7-5.69,20.71-8.28,30.77-.51,2-1.29,2.62-3.29,2.56-4.7-.15-9.4,0-14.1-.08A6.92,6.92,0,0,1,261.58,144.27Z"/><path d="M388.5,80.78c6.76.19,13.26-.15,19.62.67,14.42,1.87,23.67,11.94,24.93,26.5.58,6.69.23,13.32-2.33,19.66-4.45,11.06-13.18,16.54-24.52,17.26-10.87.7-21.82.15-32.94.15V80.78H388.5M406,96.84l-14-1.45v34.66c3.77,0,7.37.19,10.94-.05,3.77-.24,7.19-1.82,8.87-5.29,3.66-7.57,3.85-15.4-.1-22.92C410.65,99.85,408.23,98.64,406,96.84Z"/><path d="M637.12,102.4c6.36-12.79,24.7-15.4,34.29-4.42V81H688.9v64H672.61c-.12-1.63-.24-3.3-.4-5.59-6.58,7.89-14.52,8.79-23.15,5.9C642.12,143,638,137.7,635.72,131c-3.2-9.57-3.27-19.08,1.4-28.56m14.08,19.06a46.32,46.32,0,0,0,1.51,5.67c1.81,4.55,5.21,6.62,10,6.33,4.26-.27,7.34-2.78,8.55-7.32a25.67,25.67,0,0,0-.22-14.86c-1.53-4.63-4.67-7-9.16-7-4.7,0-8.18,2.22-9.5,7C651.48,114.32,651.5,117.66,651.2,121.46Z"/><path d="M590.64,144.07c-.27-1.23-.5-2.18-.79-3.46-6.2,5.24-13.33,6.72-21.08,5.9-10.9-1.15-17-10.1-14.08-20.62a12.27,12.27,0,0,1,8.78-9c6.19-1.68,12.56-2.66,18.85-3.93,1.29-.26,2.8-.13,3.82-.78,1.42-.92,3.35-2.33,3.46-3.67a6.25,6.25,0,0,0-2.39-4.78c-5.37-3.66-12.09-1.33-14.77,4.92H556.37c.14-5.7,2.29-10.31,7.07-13.14a31.6,31.6,0,0,1,10-3.73,45.24,45.24,0,0,1,21.41.82c7.62,2.21,11.41,7.14,11.59,15.1.17,7.43-.07,14.87.13,22.3.13,5,.71,9.95,1.11,15.16-4.9,0-10.34,0-15.78,0-.41,0-.81-.54-1.27-1.09m-17.1-18.32c-2.63,3.38-2.52,6.78.27,8.9,4,3,12.18,1.5,14.05-3,1.35-3.24,1.56-6.95,2.45-11.31C584,122.28,579,123.85,573.54,125.75Z"/><path d="M549.76,104.74c.07,13.55.07,26.84.07,40.3h-17v-5.76c0-8.2.14-16.4-.11-24.58-.23-7.61-5-11.17-11.6-9-3.49,1.16-5.23,3.86-5.93,7.22a35.5,35.5,0,0,0-.63,6.83c-.07,8.38,0,16.77,0,25.31H497.23V92.78h16.82v7.36c5.18-7.79,11.91-9.69,19.81-8.93C542.22,92,547.21,96.09,549.76,104.74Z"/><path d="M443.43,100.32c8.58-9.27,19.13-11,30.48-8.09,10.17,2.59,16.3,9.67,18.67,19.89,3.25,14-3.48,27.8-15.88,32.65-13.85,5.41-29.78.65-36-11.36-5.89-11.31-5.12-22.49,2.77-33.09M465,133.65c5-.05,8.23-2.51,9.68-7.25a24.37,24.37,0,0,0-.07-15.13c-1.63-4.91-4.83-7.1-9.82-7-4.61.11-8.34,2.56-9.13,7.36a47.89,47.89,0,0,0-.15,13.89C456.11,130.3,459.33,133.24,465,133.65Z"/><path d="M724.53,91.32c6.14.43,12.14.2,17.79,1.51,7.76,1.8,12,7.9,11.65,15.07H738.63c-2.36-5.2-6.84-7.21-12.4-5.14-1.2.44-2.71,1.95-2.79,3.06a4.36,4.36,0,0,0,2.25,3.47c4.31,1.48,8.77,2.51,13.2,3.63,2.22.57,4.54.78,6.71,1.45,5.62,1.75,9.63,5.29,10.75,11.23,1.08,5.77-.57,11-5.14,14.72a26.32,26.32,0,0,1-8.52,4.65,40.32,40.32,0,0,1-23.9.16c-8.63-2.51-12.8-7.71-13.76-17.19h16.2c2.58,6.88,7.58,9.31,13.78,6.85,2.19-.87,4.25-2.35,3.7-4.72a6.73,6.73,0,0,0-3.71-4.28c-4.74-1.57-9.73-2.41-14.59-3.65a45.3,45.3,0,0,1-6.82-2.23,12.55,12.55,0,0,1-8.06-11c-.5-5.57,1.23-10.46,6.19-13.13C715.57,93.67,720.05,92.76,724.53,91.32Z"/><path d="M339.26,133.08c7.87,1.06,10.27-.48,13.43-8.42h16.59a22.94,22.94,0,0,1-8.35,16.08c-10.49,8.73-29.18,7.84-38.87-1.82-7.86-7.83-9.93-20.71-5.13-32,4.36-10.3,14.06-16.14,26.3-15.85,5.91.13,11.48,1.41,16.42,4.79,5.49,3.74,8.42,9,9.19,15.74H352.13c-1.92-5.59-4.65-7.56-10.05-7.25-5,.29-8.54,3.07-9.24,8.5a51.14,51.14,0,0,0,.24,13.25C333.51,129.29,335.78,131.75,339.26,133.08Z"/><path d="M621.46,80.79h8.28V145H612.43V80.79Z"/><path d="M704.39,91c-.25.52-.37.83-.5,1.12-3.17,6.69-3.17,6.69-10.87,6V81h16C707.47,84.31,706,87.53,704.39,91Z"/><path class="cls-1" d="M406.23,97c2,1.68,4.42,2.89,5.44,4.83,3.95,7.52,3.76,15.35.1,22.92-1.68,3.47-5.1,5-8.87,5.29-3.57.24-7.17.05-10.94.05V95.39C396.65,95.88,401.33,96.36,406.23,97Z"/><path class="cls-1" d="M651.16,121.17c.34-3.51.32-6.85,1.19-9.94,1.32-4.73,4.8-7,9.5-7,4.49,0,7.63,2.37,9.16,7a25.67,25.67,0,0,1,.22,14.86c-1.21,4.54-4.29,7-8.55,7.32-4.76.29-8.16-1.78-10-6.33A44.8,44.8,0,0,1,651.16,121.17Z"/><path class="cls-1" d="M573.73,125.59c5.25-1.74,10.31-3.31,16.58-5.27-.89,4.36-1.1,8.07-2.45,11.31-1.87,4.52-10.09,6-14.05,3C571,132.53,570.91,129.13,573.73,125.59Z"/><path class="cls-1" d="M464.7,133.63c-5.37-.39-8.59-3.33-9.21-8.09a47.89,47.89,0,0,1,.15-13.89c.79-4.8,4.52-7.25,9.13-7.36,5-.12,8.19,2.07,9.82,7a24.37,24.37,0,0,1,.07,15.13C473.21,131.14,470,133.6,464.7,133.63Z"/></svg>