<svg xmlns="http://www.w3.org/2000/svg" viewBox="0 0 691.75 214.84"><defs><style>.cls-1{fill:#010202;}</style></defs><g id="Layer_2" data-name="Layer 2"><g id="Layer_1-2" data-name="Layer 1"><path class="cls-1" d="M141.46,13.72A89.21,89.21,0,0,0,92.9,0C74.43,0,58.59,4.75,44.34,13.72c-14,9-25.07,21.65-32.73,38C4,67.83,0,86.57,0,107.42s4,39.32,11.61,55.69,18.48,29,32.73,38A89.86,89.86,0,0,0,92.9,214.84c18.48,0,34.31-4.76,48.56-13.73,14-9,25.08-21.64,32.73-38,7.92-16.37,11.88-34.84,11.61-55.69,0-20.85-4-39.33-11.61-55.69S155.72,22.7,141.46,13.72Zm2.38,134.87c-4.75,12.14-11.88,21.64-20.59,28a52.07,52.07,0,0,1-60.7,0c-8.71-6.87-15.57-16.1-20.59-28s-7.39-25.86-7.39-41.44S37,77.59,42,65.72c4.75-12.14,11.88-21.64,20.59-28a52.07,52.07,0,0,1,60.7,0c8.71,6.86,15.57,16.1,20.59,28,4.75,11.87,7.39,25.86,7.39,41.43S148.85,136.71,143.84,148.59Z"/><path class="cls-1" d="M647.41,13.72C633.16,4.75,617.32,0,598.85,0s-34.31,4.75-48.57,13.72c-14,9-25.07,21.65-32.72,38C509.9,67.83,506,86.57,506,107.42s3.95,39.32,11.61,55.69,18.47,29,32.72,38a89.91,89.91,0,0,0,48.57,13.73c18.47,0,34.31-4.76,48.56-13.73,14-9,25.07-21.64,32.73-38,7.91-16.37,11.61-34.84,11.61-55.69s-4-39.33-11.61-55.69S661.66,22.7,647.41,13.72Zm2.37,134.87c-4.75,12.14-11.87,21.64-20.58,28a52.07,52.07,0,0,1-60.7,0c-8.71-6.87-15.58-16.1-20.59-28-4.75-11.88-7.39-25.86-7.39-41.44s2.38-29.56,7.39-41.43c4.75-12.14,11.88-21.64,20.59-28a52.07,52.07,0,0,1,60.7,0c8.71,6.86,15.57,16.1,20.58,28,4.76,11.87,7.39,25.86,7.39,41.43S654.8,136.71,649.78,148.59Z"/><path class="cls-1" d="M309.32,11.35c-10-5.28-21.91-8.18-35.37-8.45H201.64V211.14H236V136.45h38.27c13.46,0,25.07-2.38,35.1-8.18a59.12,59.12,0,0,0,23.49-23.49c5.28-10,8.18-21.91,8.18-35.1s-2.64-24.81-8.18-34.84A62.76,62.76,0,0,0,309.32,11.35ZM296.12,99c-6.86,6.6-16.36,10.3-29,10.3H236.21V30.62h30.88c12.41,0,22.17,3.43,29,10.29,6.6,6.86,10.3,16.63,10.3,29S303,92.11,296.12,99Z"/><path class="cls-1" d="M464.51,11.35c-10-5.28-21.64-8.18-35.37-8.45H356.83V211.14h34.31V136.45h38.27c13.46,0,25.07-2.38,35.1-8.18A59.12,59.12,0,0,0,488,104.78c5.28-10,8.18-21.91,8.18-35.1S493.54,44.87,488,34.84A62.76,62.76,0,0,0,464.51,11.35ZM451.58,99c-6.87,6.6-16.63,10.3-29,10.3H391.67V30.62h30.87c12.41,0,22.17,3.43,29,10.29,6.59,6.86,10.29,16.63,10.29,29S458.44,92.11,451.58,99Z"/></g></g></svg>