<svg xmlns="http://www.w3.org/2000/svg" viewBox="0 0 420 129.23"><g id="Layer_2" data-name="Layer 2"><g id="katman_1" data-name="katman 1"><path d="M245.45,48.78l1-3.1c2.41-8.13,4.82-16.21,7.24-24.35l.31-.94a2.15,2.15,0,0,1,2.1-1.52h8c2,0,2.41.57,1.73,2.46l-3.15,8.35c-3.51,9.13-7,18.31-10.55,27.45-.1.31-.26.62-.36.94a2.56,2.56,0,0,1-2.63,1.73q-3.47-.07-6.93,0A3,3,0,0,1,239,57.65c-1.31-3.46-2.67-7-4-10.44-3.15-8.24-6.35-16.48-9.5-24.77a8.81,8.81,0,0,1-.68-2.05c-.16-1.05.21-1.58,1.25-1.58,3,0,6,0,8.93,0,1.26,0,1.83.84,2.15,2,.58,2,1.15,4,1.78,6,2.16,7.3,4.25,14.64,6.41,21.94-.06.05,0,.05.1.05Z"/><path d="M282.61,39.33v18.9A1.5,1.5,0,0,1,281,59.8c-2.83.05-5.62.05-8.45,0a1.46,1.46,0,0,1-1.63-1.52,6.7,6.7,0,0,1,0-1V21c0-1.63.47-2.1,2.1-2.1h7.56c1.62,0,2.1.47,2.1,2.1Z"/><path d="M276.78,0a6.3,6.3,0,0,1,3.1.52,5.55,5.55,0,0,1,3.57,4.88c.42,4.78-2.79,7.19-7,7.09a10.34,10.34,0,0,1-1.73-.21c-3.25-.79-4.93-3.31-4.62-6.93a5.88,5.88,0,0,1,5.62-5.3,3.7,3.7,0,0,1,1.1,0Z"/><path d="M420,36.08v.21a.75.75,0,0,1-.21-.79v-.42a0,0,0,0,1,.05,0h-.05v-.52h.1c0-.06,0-.06,0-.11a18,18,0,0,0-.58-2.94c-1.94-6.93-6.29-11.49-13.38-13.28a25.81,25.81,0,0,0-10-.36c-7.09,1.05-12.18,4.83-14.64,11.54a28,28,0,0,0,.05,19.84,16.72,16.72,0,0,0,12.33,11,26,26,0,0,0,9.87.53c11-1.32,15.58-9.66,16.32-16.9h-.06v-.74c-.05-.31-.1-.57.21-.78v.1a.43.43,0,0,1,.11-.21v-6C420,36.13,420,36.13,420,36.08Zm-12.6,10a9.45,9.45,0,0,1-1.47,3.05,6.81,6.81,0,0,1-5,2.83,9.68,9.68,0,0,1-3-.11A6.74,6.74,0,0,1,393,47.89a14.79,14.79,0,0,1-1.41-5.2,28.33,28.33,0,0,1,.42-9.23A11.68,11.68,0,0,1,393.39,30a6.85,6.85,0,0,1,5.35-3.25,9.45,9.45,0,0,1,3,.1,6.75,6.75,0,0,1,4.77,3.73A15.44,15.44,0,0,1,408,36.5a24.35,24.35,0,0,1,.06,2.83,19.36,19.36,0,0,1-.74,6.72Z"/><path d="M328,.39h-7.3c-2,0-2.36.37-2.36,2.37v17c0,.37.16.73-.1,1.1-.47-.05-.74-.37-1.1-.58-5.46-3.2-11.18-3.77-16.95-1.1-4.05,1.89-6.56,5.3-8.19,9.34a29.83,29.83,0,0,0-1.84,12.13,25,25,0,0,0,2.62,11.17c2,3.84,4.89,6.77,9.08,8a17,17,0,0,0,16-2.72c.37-.21.58-.58,1.05-.69a7.41,7.41,0,0,1,.57,1.84,1.87,1.87,0,0,0,1.84,1.42h1.26c1.89,0,3.73,0,5.56,0,1.47,0,1.89-.48,1.95-2V2.39c-.06-1.63-.48-2-2.05-2ZM318.35,39v9.55a1.39,1.39,0,0,1-.84,1.47,12.92,12.92,0,0,1-8.24,1.57,7.18,7.18,0,0,1-5.62-3.88,14.58,14.58,0,0,1-1.47-5.3,27.09,27.09,0,0,1,.63-9.87A12.08,12.08,0,0,1,303.86,30a6.76,6.76,0,0,1,5.51-3.51,15.81,15.81,0,0,1,8.08,1.41,1.46,1.46,0,0,1,.95,1.53c-.11,3.25,0,6.4,0,9.6Z"/><path d="M359.65,43.17a21.46,21.46,0,0,0,8.81-2.26,9.78,9.78,0,0,0,5.31-7,14.38,14.38,0,0,0-.06-5.77c-1.1-4.73-4.09-7.67-8.6-9.19a23.3,23.3,0,0,0-7.82-1c-8.82.21-15.54,4.68-18.27,13.49A29.22,29.22,0,0,0,339.23,49c1.84,6,6,9.61,12,11.23a28.27,28.27,0,0,0,7.87.79,33.45,33.45,0,0,0,11.29-2.15c1.52-.58,1.89-1.1,1.89-2.73V52.4c-.06-1.52-.69-2-2.21-1.68-1.15.32-2.26.58-3.41.84a26.55,26.55,0,0,1-10.76.37,8.23,8.23,0,0,1-6.93-6.3,21.21,21.21,0,0,1-.57-3.2,1.58,1.58,0,0,1,.73.11,41.52,41.52,0,0,0,10.5.63Zm-11-8.4a13,13,0,0,1,2.1-5.72c1.94-2.57,4.62-3.31,7.66-3,.26,0,.47.1.74.1,3.67.58,4.56,3.52,3.88,6.35-.53,2.1-2.26,2.89-4.2,3.26a13.51,13.51,0,0,1-3.25.26,49.59,49.59,0,0,1-6.35-.53C348.78,35.45,348.57,35.24,348.68,34.77Z"/><path d="M208,129c-2.87-.16-5.73-.26-8.6-.47a150.89,150.89,0,0,1-22.72-3.46,153.92,153.92,0,0,1-68.12-35.48c-1.84-1.63-3.57-3.31-5.35-5a3.82,3.82,0,0,1-1-1.41,1.93,1.93,0,0,1,.37-2.1,1.84,1.84,0,0,1,2.1-.47,11.5,11.5,0,0,1,1.36.68,204.35,204.35,0,0,0,61,25.19q10.88,2.52,21.89,3.94a201.28,201.28,0,0,0,31.8,1.41,170.82,170.82,0,0,0,17.06-1.41,207,207,0,0,0,38.94-8.87,185.09,185.09,0,0,0,19.52-7.67,4.43,4.43,0,0,1,3.15-.42,3.26,3.26,0,0,1,2.36,3.94,3.79,3.79,0,0,1-.26.68,5.84,5.84,0,0,1-1.73,2,116.79,116.79,0,0,1-19.42,12.33,154,154,0,0,1-41.09,13.91A181.91,181.91,0,0,1,214.43,129h-.05v.21h-6.3V129ZM304.6,77.85a45.13,45.13,0,0,1,10.23,1.21,16.86,16.86,0,0,1,2.73,1A3.54,3.54,0,0,1,319.71,83a21.82,21.82,0,0,1,.16,4.51,58.12,58.12,0,0,1-8.08,25.35,35,35,0,0,1-6.09,7.5,4.34,4.34,0,0,1-1.68,1,1.23,1.23,0,0,1-1.68-1.26,5.6,5.6,0,0,1,.37-1.57c1.83-4.94,3.62-9.82,5-14.91a53.26,53.26,0,0,0,1.78-8.5,15.8,15.8,0,0,0,.05-3.15,4.1,4.1,0,0,0-2.94-3.83,20.23,20.23,0,0,0-5-.94,82.85,82.85,0,0,0-14.43.63l-6.35.78a1.56,1.56,0,0,1-1.68-.63,1.78,1.78,0,0,1,.16-1.89,5.42,5.42,0,0,1,1.58-1.47,35.94,35.94,0,0,1,12.85-5.56,63.57,63.57,0,0,1,10.87-1.21Z"/><path d="M40.25,34.93a24,24,0,0,0-2-7.88c-2.16-4.51-5.46-7.82-10.5-9A18.53,18.53,0,0,0,12,21.6a4.37,4.37,0,0,1-1.1.78c-.11-.05-.21-.1-.21-.15-.16-.53-.27-1.05-.42-1.58a2.08,2.08,0,0,0-2.36-1.78c-1.58,0-3.21.05-4.78,0A3.62,3.62,0,0,0,0,19.92C0,38.28,0,56.71.05,75A2.94,2.94,0,0,0,3,76.28c1.89,0,3.78,0,5.67,0C12,76.28,12,76.28,12,73v-15c0-.37-.16-.79.21-1.1a17.7,17.7,0,0,0,9.13,3.62,15.4,15.4,0,0,0,12.33-3.83A19.46,19.46,0,0,0,39.1,48a32.31,32.31,0,0,0,1.15-13.06Zm142.38,7.71a34.84,34.84,0,0,0,11.92.16,19.46,19.46,0,0,0,6.56-2.1,9.74,9.74,0,0,0,4.82-5.88c1.84-6.61-1-13.28-7.87-15.74a23.4,23.4,0,0,0-10.44-1c-8.29.94-13.7,5.51-16.17,13.43a29,29,0,0,0-.1,16.38c1.84,7,6.45,11.12,13.43,12.59A33.75,33.75,0,0,0,203,58.91a2.41,2.41,0,0,0,1.79-2.57c-.05-1.26,0-2.57,0-3.89,0-1.57-.63-2-2.15-1.67s-3,.68-4.52,1a26.16,26.16,0,0,1-9.86.11,8.8,8.8,0,0,1-7.09-9.45c.47,0,1,.11,1.47.21ZM110.42,59.85h-7c-1.84,0-2.31-.52-2.31-2.3V21.12a5,5,0,0,1,.16-1.26,1.5,1.5,0,0,1,1.46-1h6.56a1.88,1.88,0,0,1,1.84,1.47c.26.73.42,1.41.68,2.2.53,0,.84-.37,1.21-.58A27.36,27.36,0,0,1,122.33,18a19.68,19.68,0,0,1,7.87,0,9.81,9.81,0,0,1,6.09,4.09,2.44,2.44,0,0,0,.32.37c-.06.05,0,.05,0,.16,1.31-.79,2.67-1.63,4.09-2.37a23.46,23.46,0,0,1,11.91-2.62,11.12,11.12,0,0,1,7.83,3.2,11.18,11.18,0,0,1,2.93,7.3,17.06,17.06,0,0,1,.06,1.78V57.13c0,2.36-.32,2.67-2.68,2.67h-6.4a10.62,10.62,0,0,1-1.26,0,1.44,1.44,0,0,1-1.26-1.21,9.14,9.14,0,0,1-.11-1.73V32.51a8.68,8.68,0,0,0-.31-2.88,3.92,3.92,0,0,0-3.57-2.89,18.57,18.57,0,0,0-9,1.73.87.87,0,0,0-.63,1V57a7.72,7.72,0,0,1-.1,1.52,1.25,1.25,0,0,1-1.31,1.26c-.79.05-1.58.05-2.42.05h-5.56c-1.94,0-2.36-.47-2.36-2.41V32.62a11.45,11.45,0,0,0-.27-2.73,3.94,3.94,0,0,0-3.67-3.15,18.49,18.49,0,0,0-9.18,1.78.84.84,0,0,0-.58,1v28c0,1.94-.42,2.36-2.36,2.36ZM57.31,59.8H50.49a9,9,0,0,1-1.16,0,1.4,1.4,0,0,1-1.26-1.31,10.62,10.62,0,0,1,0-1.26V21.49c0-2.41.26-2.68,2.68-2.68h5A2.09,2.09,0,0,1,58.1,20.6c.36,1.31.68,2.62,1,4A1.62,1.62,0,0,0,60,24a36.37,36.37,0,0,1,3-2.68,13.91,13.91,0,0,1,9.55-2.88c1.36.05,1.84.47,1.94,1.78.1,1.79,0,3.62,0,5.41a10.37,10.37,0,0,1-.1,2.15,1.51,1.51,0,0,1-1.52,1.42,14.18,14.18,0,0,1-2.16-.06,25.27,25.27,0,0,0-10.23,1.47c-.73.27-.73.79-.73,1.37V57.18a10.32,10.32,0,0,1-.06,1.36,1.26,1.26,0,0,1-1.26,1.21A8.77,8.77,0,0,1,57.31,59.8ZM89,59.7h-7.3a3,3,0,0,1-.73-.06,1.51,1.51,0,0,1-1.42-1.36,10.62,10.62,0,0,1,0-1.26c0-5.83,0-11.81,0-17.79V20.6c0-1.26.52-1.73,1.78-1.79q4.09-.07,8.19,0c1.21,0,1.58.37,1.68,1.58a12.37,12.37,0,0,1,.05,1.36v35c0,.57-.05,1.15-.1,1.73a1.3,1.3,0,0,1-1.26,1.2,4.49,4.49,0,0,1-.89.06ZM27.71,45.79A8.13,8.13,0,0,1,25.3,50a7.51,7.51,0,0,1-4.83,1.83,14.44,14.44,0,0,1-7.66-1.67,1.5,1.5,0,0,1-.9-1.47v-9.5c0-3.15.06-6.3,0-9.45A1.61,1.61,0,0,1,13,28.1a14.23,14.23,0,0,1,9-1.36,6.42,6.42,0,0,1,5,3.78,14.88,14.88,0,0,1,1.36,5.35,26.42,26.42,0,0,1-.63,9.92ZM181.32,34.61a14,14,0,0,1,1-3.62c1.57-3.83,4.88-5.14,8.24-4.93a8.44,8.44,0,0,1,2.78.63,4,4,0,0,1,2.41,3.3,5.88,5.88,0,0,1-.16,2.73c-.63,1.89-2.15,2.68-4,3.05a10.88,10.88,0,0,1-3.42.26,41.72,41.72,0,0,1-6.19-.47c-.78-.11-.78-.11-.68-1ZM85.65,0a6.39,6.39,0,0,1,2.46.36c2.84,1,4.31,3.42,4,6.62a5.86,5.86,0,0,1-5,5.35,9.91,9.91,0,0,1-3.52,0,5.87,5.87,0,0,1-5-6.56C79,2.07,81.45,0,85.65,0Z"/></g></g></svg>