<svg xmlns="http://www.w3.org/2000/svg" viewBox="0 0 461.73 466.12"><defs><style>.cls-1{fill:#030015;}</style></defs><g id="Layer_2" data-name="Layer 2"><g id="Layer_1-2" data-name="Layer 1"><path class="cls-1" d="M231.33,96.73c60.14-1.45,123.82,43.51,132.94,116.73,6.89,55.26-14.12,99.88-60.6,131.42-5.76,3.9-8.49,7.75-7.89,14.46.71,8-1.61,14.93-8.44,19.66-3.28,2.27-3.67,5.3-3.58,8.81.11,4.5-.07,9,0,13.5.09,7.14-2.07,13.39-7.72,17.92a13.62,13.62,0,0,0-5.41,10.5c-1.19,17.63-15.53,35.25-39.19,36.35-20.16.94-37.75-14.45-41.14-35.73-.73-4.62-1.35-8.42-5.55-11.48-5.13-3.74-7.06-9.48-6.89-15.87.11-3.75-.08-7.5.06-11.25.21-5.81-.41-10.67-6.06-14.57-5.48-3.77-7.48-10.34-6.9-17,.66-7.6-2.42-11.93-8.81-16.27-33.62-22.88-53.48-54.35-59.42-95.07-9.21-63.08,31.41-130.07,99-147.86a118,118,0,0,1,16.5-3.25C218.56,97,225,97,231.33,96.73ZM268.5,364c5.56,1.84,8.49,1.13,9.16-3.35a28.78,28.78,0,0,0,.22-7.86c-1.34-9.89,2.93-15.47,11.64-20.49,40.6-23.41,64-68.22,57-117.25C337.45,151.76,282.15,113.6,228,114.48c-54.61.88-114.68,45.16-114.49,118,.11,40.83,18.35,74,53,96.4,11.12,7.16,19.3,13.69,16.23,28a8.65,8.65,0,0,0,.17,3.35c.83,4.2,3.42,5.49,8.61,4,.19-3.61.58-7.61.59-11.62.05-25.52.73-51.07-.24-76.56-.58-15.14,2.23-28.7,9.55-41.85,6-10.79,10.57-22.4,16.54-33.22,6.21-11.27,18.21-11.23,25.13-.39a55.65,55.65,0,0,1,3.07,6c6.33,13.18,12.92,26.26,18.82,39.64a39.2,39.2,0,0,1,3.31,15c.31,30,.17,60.05.19,90.08Zm-57.13-99.44c-2.68,17.85-1.85,92.71,1,100.67,12.32-.17,24.88.9,37.66-.67V265.59a52.17,52.17,0,0,0-6.94-1C232.68,264.45,222.25,264.51,211.37,264.51ZM196.78,383.86v21.5c15.44,2.22,60.27,1.53,68-1V383.86Zm55.05,41.82c-11.21-2-35.1-1.7-43,.59,1.33,13.73,10.65,22.46,23.08,21.61C244,447.06,252.1,438,251.83,425.68ZM216,246.57c10.55-.59,18.95,1.43,28.28-1.63l-13.63-28.66C225.51,226.88,221.21,235.79,216,246.57Z"/><path class="cls-1" d="M357.69,114.23c-6.94,0-11.38-5.26-9.92-10.61a15.88,15.88,0,0,1,3.88-6.6C361.8,86.61,372,76.25,382.52,66.23c2.18-2.07,5.89-3.81,8.76-3.63,7.41.47,10.22,9,5,15.21C392,83,387,87.49,382.32,92.25c-5.78,5.82-11.46,11.74-17.46,17.32C362.5,111.76,359.4,113.15,357.69,114.23Z"/><path class="cls-1" d="M71.06,400.49c-2.93-2.22-6.31-3.65-7.73-6.19-1.18-2.11-.7-5.73.22-8.26.83-2.3,3.14-4.12,5-6q13-13.21,26.13-26.3a34.85,34.85,0,0,1,6.12-4.84c3.69-2.29,7.37-1.51,10.23,1.45s3.76,6.5,1.68,10.29a20.22,20.22,0,0,1-3.35,4.45c-10,10.09-20.06,20.19-30.25,30.11C77,397.2,74.27,398.42,71.06,400.49Z"/><path class="cls-1" d="M70.15,61.36c3.18,1.66,5.9,2.4,7.65,4.12,11,10.72,21.8,21.63,32.58,32.57,3.11,3.16,4.48,7,2.21,11.26-2.78,5.23-9.24,6.31-14.28,1.76-6.94-6.28-13.39-13.11-20-19.74-4.76-4.77-9.54-9.53-14.15-14.46-2.48-2.65-3.65-6.07-1.22-9.19C64.85,65.23,67.67,63.48,70.15,61.36Z"/><path class="cls-1" d="M399,388.51c-.06,9-7.39,13.1-13.67,9.32a32.38,32.38,0,0,1-5.86-5.21q-13.1-13.11-26.1-26.31c-1.82-1.86-3.84-3.74-5-6-1.87-3.68-1.15-7.32,2-10.21s6.66-3.37,10.27-1.15a29,29,0,0,1,5.15,4.32c9.55,9.5,19.12,19,28.51,28.66A43.69,43.69,0,0,1,399,388.51Z"/><path class="cls-1" d="M431.12,239.61c-7.11,0-14.22.22-21.31-.08-6.45-.27-10.08-3.37-10.36-8-.31-5.34,3.46-9.62,10-9.78,14.2-.35,28.42-.31,42.63,0,6,.14,9.52,3.86,9.62,8.81.11,5.37-3.52,8.74-10.42,9C444.58,239.82,437.85,239.62,431.12,239.61Z"/><path class="cls-1" d="M239.28,31.1c0,7.09.24,14.19-.07,21.27-.29,6.53-3.14,9.25-8.69,9.28s-8.84-2.74-9-9.1c-.34-14.17-.32-28.36-.05-42.54C221.61,3.32,225.41-.2,231,0c5.18.2,8,3.27,8.25,9.82C239.49,16.91,239.28,24,239.28,31.1Z"/><path class="cls-1" d="M30.17,239.53c-7.1,0-14.21.29-21.29-.09C2.69,239.11.33,236.62,0,231.5c-.32-5.43,2.62-9.48,8.51-9.65,14.56-.41,29.15-.47,43.71,0,6,.19,9.19,4.35,9,9.43-.16,5.28-3,8-9.81,8.25-7.09.29-14.2.06-21.3.06Z"/><path class="cls-1" d="M398.23,171.48c-7.36.25-10.68-1.89-12.1-6.32-1.31-4.09.3-8,3.82-9.69a138.52,138.52,0,0,1,20.8-8.16c3.95-1.19,7.11,1.32,8.82,5.25s1,8.13-2.4,10.05C410.42,166.46,403.07,169.27,398.23,171.48Z"/><path class="cls-1" d="M40.93,304.2c.91-1.27,2.21-4.83,4.69-6.13a123.37,123.37,0,0,1,18.55-7.48c4.46-1.48,8.1.43,10,4.73a8.46,8.46,0,0,1-4,11.37,118.31,118.31,0,0,1-18.52,7.63C46.05,316,41.21,311.85,40.93,304.2Z"/><path class="cls-1" d="M63.12,171.33c-5.06-2.15-11.7-4.56-17.93-7.79-4-2.1-5.1-6.26-3.65-10.65a8.43,8.43,0,0,1,10.81-5.36,151.12,151.12,0,0,1,18.44,7.8c4.44,2.17,4.66,6.43,3.53,10.64S69.61,172.07,63.12,171.33Z"/><path class="cls-1" d="M315.68,50c-3.92,8.28-6.86,16-11.23,22.82-1.24,1.94-7.05,2.49-9.89,1.4-2.29-.88-5.07-5.69-4.47-7.9a121,121,0,0,1,8.54-21.75c1.84-3.72,6.48-4.57,9.89-2.66C311.35,43.47,313.13,47,315.68,50Z"/><path class="cls-1" d="M412.25,316c-8.39-3.74-16-6.66-23.15-10.54-3.47-1.89-4.21-6.09-2.49-10,1.93-4.31,5.9-6.38,10-5.13a121.54,121.54,0,0,1,19.57,8.06c3.55,1.79,5.4,5.75,3.42,9.52C418.1,310.94,415,313.1,412.25,316Z"/><path class="cls-1" d="M160.22,75.38c-1.24-1.08-4.39-2.71-5.81-5.29a98.17,98.17,0,0,1-7-16.46c-1.87-5.69.43-10.16,5.23-11.89,4.58-1.64,8.62-.25,11.16,4.74A111.16,111.16,0,0,1,170.76,63C172.94,69.84,168.73,75.53,160.22,75.38Z"/></g></g></svg>