<svg xmlns="http://www.w3.org/2000/svg" viewBox="0 0 621.14 519.59"><g id="Layer_2" data-name="Layer 2"><g id="Layer_2-2" data-name="Layer 2"><path d="M42.81,84.93a16,16,0,0,0,8.83,4.36,67.6,67.6,0,0,0,3.49,9c8.65,19.59,23.94,30.08,44.29,30.33.3,0,.59,0,.88,0,32,0,45.14-22,48.71-37.71a14.87,14.87,0,0,0,10.78-14.08L160,61.23a15,15,0,0,0-9.37-14l.06-6c-.06-22.33-18.46-40.74-41-41l-4.35,0C91-.95,85.28,4.85,81.48,8.69c-1.62,1.64-2.44,2.41-3.43,2.83-1.25-.11-2.58-.27-4-.44-6.94-.83-14.79-1.77-20.88,3.3-3.82,3.22-6,8.21-6.38,14.84,0,.12,0,.25,0,.37l-.08,10.68c0,.23,0,.43,0,.66l-.08,5.74c-5,2.2-8.06,7.08-8.14,13.62v.23l.26,14.07A14.21,14.21,0,0,0,42.81,84.93Zm10.27-25a9.15,9.15,0,0,0,8-8.95l.18-11a5.49,5.49,0,0,0,0-.81l.09-9.31c.18-2.8.83-4,1.18-4.34,1.27-1.06,6.42-.46,9.83,0,2,.23,4,.48,6,.6l.42,0A6.27,6.27,0,0,0,80.37,26c5.74-1.24,9-4.59,11.45-7,3-3.05,4.84-4.88,12.59-4.26l.5,0,4.57.05a26.56,26.56,0,0,1,26.65,26.42L136,51.4a9.17,9.17,0,0,0,9.06,9.29.42.42,0,0,1,.35.37l-.19,15.56a.35.35,0,0,1-.16.29L143,76.85a7.29,7.29,0,0,0-7.48,6.69c-.08,1.27-2.81,30.52-35.21,30.52-.23,0-.46,0-.67,0-14.66-.17-24.89-7.3-31.2-21.77a2.09,2.09,0,0,0-.15-.3,48.39,48.39,0,0,1-3.76-10.9,7.27,7.27,0,0,0-6.85-5.92l-1.93-.09H55.4a4.69,4.69,0,0,1-2.07-.31V74.4l-.27-14A3,3,0,0,1,53.08,59.94Z"/><path d="M339.07,71A11.35,11.35,0,0,0,350.4,59.67V19.85a11.32,11.32,0,0,0-22.63,0V59.67A11.33,11.33,0,0,0,339.07,71Z"/><path d="M535.51,71a11.33,11.33,0,0,0,11.31-11.32V19.85a11.32,11.32,0,0,0-22.63,0V59.67A11.35,11.35,0,0,0,535.51,71Z"/><path d="M608.06,51h-46.7v8.66a25.86,25.86,0,1,1-51.71,0V51H364.94v8.66a25.86,25.86,0,1,1-51.71,0V51H263.87a13.12,13.12,0,0,0-13.09,13.11V219.65c-4.94-2.78-9.8-5.73-14.54-8.77-29.33-18.82-53.88-41.27-63.88-50.87a33.4,33.4,0,0,0-23.31-9.39H29.83A29.86,29.86,0,0,0,0,180.45V323.79a29.84,29.84,0,0,0,45.12,25.62h0V485.71a32.47,32.47,0,0,0,57.7,20.45h0a32.48,32.48,0,0,0,57.71-20.47V247.18c17.41,14.83,46.85,26.38,75.7,34.9,4.88,1.45,9.75,2.8,14.54,4.07v34.53a13.11,13.11,0,0,0,13.09,13.1H608.06a13.1,13.1,0,0,0,13.08-13.1V64.12A13.11,13.11,0,0,0,608.06,51ZM303.24,161.23H568.69a7.28,7.28,0,0,1,0,14.55H303.24a7.28,7.28,0,0,1,0-14.55Zm0,45.13H367a7.27,7.27,0,1,1,0,14.54H303.24a7.27,7.27,0,1,1,0-14.54ZM169.6,235.77A14.28,14.28,0,0,0,146,246.64V485.7a17.95,17.95,0,1,1-35.9,0V346.36h0a7.32,7.32,0,0,0-.1-1c0-.14,0-.28,0-.42s0-.15-.06-.22a7.25,7.25,0,0,0-14.11,0,1.42,1.42,0,0,0-.07.22c0,.14,0,.28,0,.42a7.34,7.34,0,0,0-.11,1h0V485.7h0a17.95,17.95,0,1,1-35.89,0V264.07s0,0,0,0V221.6a7.27,7.27,0,0,0-14.54,0V323.79a15.29,15.29,0,0,1-30.58,0V180.45a15.31,15.31,0,0,1,15.29-15.29H149.05a19,19,0,0,1,13.24,5.32c23.06,22.17,82.76,74.66,139.08,83.66a14,14,0,0,1,10.7,19.44,1.14,1.14,0,0,0-.17.35,14,14,0,0,1-15.31,7.75C260.9,274.72,197,259.48,169.6,235.77Zm287-23.66L324.16,281.87a28.75,28.75,0,0,0,3.3-18.16l122.38-64.48a7.28,7.28,0,0,1,6.77,12.88Zm114.74,8.79H507.63a7.27,7.27,0,1,1,0-14.54h63.72a7.27,7.27,0,0,1,0,14.54Zm0-92.9H305.9a7.28,7.28,0,0,1,0-14.55H571.35a7.28,7.28,0,0,1,0,14.55Z"/><polygon points="538.57 477.13 482.19 348.33 466.32 348.33 437.48 348.33 421.61 348.33 365.23 477.13 381.1 477.13 522.7 477.13 538.57 477.13"/><rect x="349" y="491.67" width="211.08" height="27.92"/></g></g></svg>