<svg xmlns="http://www.w3.org/2000/svg" viewBox="0 0 557.72 449.14"><defs><style>.cls-1{fill:#030015;}</style></defs><g id="Layer_2" data-name="Layer 2"><g id="Layer_1-2" data-name="Layer 1"><path class="cls-1" d="M365.05,121.37c-20.92-4.78-37.18.81-50.9,13.48-18.67,17.25-36.8,35.1-54.9,53-3.19,3.14-5.48,7.39-7.56,11.45-7.36,14.4-14.44,29-21.67,43.42a38.29,38.29,0,0,1-4,7c-2.91,3.6-6.69,5.05-11.28,3.08a9.18,9.18,0,0,1-5.57-11.25,42.84,42.84,0,0,1,3.49-8.5c7.89-15.86,15.69-31.77,23.91-47.46a48.61,48.61,0,0,1,8.92-11.89c17.86-17.55,35.75-35.09,54.06-52.17,21-19.57,45.69-26.8,73.55-18.44,7.38,2.21,11.36.14,16-4.53q44.42-44.69,89-89.15c1.91-1.91,3.69-4,5.72-5.71,5.28-4.54,10.58-5,15.4-.51,9.53,9,18.85,18.22,27.79,27.78,5.6,6,5.11,10.47-1.34,17-14.85,15.12-29.91,30-44.89,45Q464.9,109,449,124.93a36.12,36.12,0,0,0-3.11,4.41c11.38,4.23,22.11,8.35,32.93,12.23,22.11,7.92,44.27,15.7,66.4,23.55a49.85,49.85,0,0,1,6.45,2.52c5.38,2.83,7.3,7.55,5.27,12.37-2.12,5-6.59,7.43-12.11,5.7-8.81-2.75-17.48-6-26.17-9.07-26.1-9.35-52.29-18.44-78.18-28.32-8.48-3.24-13.72-1.7-20,4.79C393.31,181,365.54,208.27,338,235.8c-2.62,2.63-5,5.46-8.21,8.93h47c1.44-8.72,2.71-16.57,4.06-24.39.71-4.17,1.1-8.46,2.44-12.43,1.73-5.16,6-7.29,10.89-6.16s7.45,4.43,7.08,9.17c-.73,9.19-2,18.34-3.11,27.5-.52,4.2-1.31,8.36-1.92,12.55-1.31,9-4.37,12.08-13.37,12.54-18.08.93-36.16,1.82-54.25,2.45-25.35.89-34.49,9.69-36.79,36.86a70.83,70.83,0,0,0,8.58.86c36.6-.59,73.19-1.38,109.79-1.81,4.87-.05,9.9,1.18,14.63,2.58,16,4.73,32.09,8,48.9,4.94,15.68-2.84,28.9-10.24,40.35-21.07,1.68-1.59,3.19-3.37,5-4.86,4.92-4.16,11-4.45,14.51-.82s3.48,10-.78,14.63c-14.7,16.06-32.45,26.86-54,31.24-19.08,3.87-37.46.94-55.86-4.11a66,66,0,0,0-18.07-2.63c-37.75.41-75.5,1.28-113.26,1.85-18.57.27-18.57.12-21.55-17.78-5.58,1.73-8.41,6.6-12.12,10.11s-7.75,5.79-13.23,5.84c-7.68.06-15.36,1.13-23.05,1.41-10.54.38-14-3-14.21-13.29,0-1.54.24-3.1.09-4.62-1.85-18.65,5.65-32.08,19.34-45.21,43.95-42.1,86.43-85.73,129.44-128.81C359,128.61,361.31,125.63,365.05,121.37ZM228.61,302c10,3.15,16.45-1.06,22.9-7.53q124-124.33,248.23-248.39c2.12-2.13,4-4.5,6.75-7.6L489.86,22.69c-3.42,4.53-5.62,8.28-8.6,11.26q-122.83,123-246,245.79C228.83,286.19,226.14,292.62,228.61,302Z"/><path class="cls-1" d="M129.42,247.34C95.36,307.61,61.69,367.22,27.36,428c3.62.82,6,1.77,8.42,1.83,8.86.2,17.73.12,26.6.12,104.45,0,208.9-.13,313.36.22,9.79,0,15.39-2.95,19.85-11.62,8.45-16.42,18-32.31,27.12-48.37,4.79-8.39,9.78-10.84,15.43-7.93s6.48,8.83,1.87,17.1c-11.25,20.18-22.85,40.18-33.95,60.45-3.82,7-8.95,9.43-16.82,9.36-36.23-.32-72.46-.13-108.69-.13H22.69c-4.62,0-9.29.29-13.86-.24-7.35-.85-10.54-6.36-7.92-13.31a60,60,0,0,1,4.21-8.21c35-62.05,70.3-124,105-186.25,5.62-10.1,12.15-14.72,23.77-13.7,10.33.91,20.8.19,31.21.2,2.31,0,4.63-.11,6.93.08,7.06.57,11.72,4.86,11.47,10.4-.23,5.07-4.67,9.08-11.24,9.28-9.63.3-19.27.09-28.91.09Z"/><path class="cls-1" d="M184.31,281.73a89.18,89.18,0,0,1-3.57,8.38q-28,49.72-56.1,99.38a23,23,0,0,1-3.14,4.81c-2.87,3-6.42,4.26-10.45,2.6-4.43-1.82-6.63-5.34-6-10a22.25,22.25,0,0,1,2.76-7.48q27.71-49.22,55.59-98.33c1.12-2,2.31-4.75,4.09-5.37,3.35-1.17,7.53-2.15,10.66-1.1C180.79,275.44,182.39,279.33,184.31,281.73Z"/><path class="cls-1" d="M186.65,397.64c-8.4,0-13.16-7.43-10.23-14.11,2.31-5.26,5.43-10.18,8.28-15.2q7.71-13.56,15.51-27c2.62-4.56,6.54-6.52,11.66-5.16a9,9,0,0,1,5.81,13c-7.82,15-16.33,29.67-25,44.24C191.36,395.67,188,396.76,186.65,397.64Z"/></g></g></svg>