<svg id="svg40450" xmlns="http://www.w3.org/2000/svg" viewBox="0 0 3000 2933.21"><defs><style>.cls-1{fill:#084aa3;fill-rule:evenodd;}</style></defs><path class="cls-1" d="M341,1343.78c-58.58,0-91.39,56.82-91.39,133,0,54.77,16.41,79.69,63.56,79.69,52.74,0,93.14-48.62,93.14-132.11C406.3,1370.44,390.78,1343.78,341,1343.78Zm1661.57,0c-25.2,0-47.48,10.25-60.07,25.78l-27.23,183c9.67,2.91,21.4,3.84,37.79,3.84,61.21,0,107.8-40.73,107.8-132.41,0-58-17.59-80.25-58.29-80.25Zm550,128.27c0,57.41,21.67,72.93,57.11,72.93,20.8,0,39.56-7.32,52.72-21.1l24.31-184.8c-12.3-5.56-24.31-6.43-39.52-6.43C2590.08,1332.65,2552.59,1380.69,2552.59,1472.05Zm354.69,5.88-11.41-9.36L2955,1043l-40.73-31C2872.41,979.71,2820,975,2792.47,975c-94.3,0-148.51,50.36-161.09,150l-5,35.44A273.26,273.26,0,0,0,2511,1183.28a159.08,159.08,0,0,0,10.83-58.58c0-87-62.38-147.91-151.73-147.91-95.48,0-167.5,68.54-167.5,159.33a169,169,0,0,0,4.69,39.54,166.68,166.68,0,0,0-31.07,14.65c-33.12-19.92-73.22-31-120.07-31-35.74,0-65.9,6.43-90.81,17-28.11-12.9-59.47-15-86.12-15-52.12,0-89.61,5.27-119.5,17-37.18-16.41-76.71-18.75-94.88-18.75-55.34,0-90.53,18.45-113.35,43.06-36-36.92-87.87-41.3-124.48-41.3-56.23,0-95.19,6.15-126.23,19.91-28.7-13.76-66.78-22.86-118.91-22.86-69.42,0-129.75,16.41-179,45.7-24.31-24.9-64.44-44.52-131.8-44.52-21.09,0-39.54,1.75-56.23,6.15l9.68-72.32L831.3,1043l-40.44-31C749,979.71,696.55,975,669,975c-94.31,0-148.49,50.36-161.38,150l-8.79,67.37c-41.59-22.86-93.72-34.85-155.52-34.85-189.79,0-317.2,128.28-317.2,319.24,0,158.75,99,253.65,264.77,253.65,74.1,0,138.23-17.56,189.21-49.79,25.77,30.46,66.19,48,116.86,48,42.18,0,72.92-4.08,96.93-13.15l35.44-12.9c22,15.82,50.69,26,89.35,26,70.29,0,117.45-14.64,148.79-35.41,41,24.61,93.71,37.19,157.26,37.19,70,0,126.24-18.16,167.84-46.28,30.45,27,75,44.5,137.37,44.5,42.76,0,80-6.72,112.45-20.19,34.87,21.07,73.82,21.07,88.76,21.07,13.75,0,26.65-.6,39-1.74-2.64,18.73-4.38,32.77-4.38,45.68,0,70,46,135.88,148.78,140.29,77.31,3.52,146.74-31.35,146.74-31.35l21.37-160.48c65-5.85,121.56-26.34,167.52-58.88,24.6,37.81,69.44,65.6,137.68,65.6,60.3,0,104.23-7.89,137.93-24.31,3.51-2,6.75-4.08,10.23-6.12,34.3,19.91,76.49,30.43,126.25,30.43,35.75,0,68.54-6.72,97.26-18.73,22.26,12.61,49.76,19.63,80.54,19.63,198,0,213.52-116.26,213.52-151.7,0-51.27-25.19-82.61-46.28-99.89ZM291.78,1642.25c-106.6,0-176.9-46.88-176.9-165.5,0-138.53,84.36-231.38,229.33-231.38,135.62,0,183.64,67.37,183.64,167.52C527.85,1554.38,441.74,1642.25,291.78,1642.25Zm527.79-1.78c-36.61,0-49.5-13.16-69.4-55.35l-62.68-128L664,1632.85c-17.56,6.75-46.57,7.62-66.48,7.62-41,0-59.74-16.71-59.74-52.43,0-10.24,1.74-28.12,5.57-53.29l52.42-398.93c7.6-58.86,27.23-72.92,74.09-72.92,26.07,0,52.43,6.74,68.24,18.73l-43.93,329.5c111.3-154.34,121.55-163.72,177.78-163.72,58.89,0,79.67,16.71,79.67,50.37,0,19.63-5.86,32.79-15.23,43-14.06-.87-27.83-.87-39.25-.87-19.64,0-30.77,4.68-86.12,80.54l63.85,115.09c4.39,7.62,9.08,14.07,19.62,14.07,8.49,0,22.55-.89,33.68-3.83,9.39,6.75,13.18,19.62,13.18,32C941.41,1621.73,897.18,1640.46,819.57,1640.47Zm454.85-291.12c-21.67-6.43-43.93-10.25-78.78-10.25-67.38,0-105.75,39.26-105.75,123.58,0,61.82,18.74,84.09,68.24,84.09,28.12,0,60.92-6.46,96.67-19.62,12.89,6.72,19.62,25.45,19.62,39.24,0,48-43.05,75.86-148.78,75.86-113.35,0-174.27-45.7-174.27-164.63,0-147.9,89.93-231.37,231.09-231.37,89,0,110.71,27.24,110.71,63,0,19.63-6.74,30.76-18.75,40.13Zm357.62,292c-46,0-65.61-14-59.15-58l2.92-18.76c-27.23,49.79-67.4,75.86-145.28,75.86-66.48,0-104-27.22-104-87.87,0-26.37,2.07-43,10.55-87.29l23.44-127.1-43,.88c-7.62-9.38-9.37-21.66-9.37-33.69,0-41.28,36.3-56.23,119.79-56.23,61.83,0,75.87,17.87,69.15,56.23l-23.46,145.86c-4.69,26.35-9.37,57.12-9.37,73.23,0,18.73,10.54,25.2,35.73,25.2,26,0,54.17-12,72-41.3l25.23-187.15c7.62-58.88,21.66-73.81,68.54-73.81,26,0,55.94,6.44,72,18.74l-30.15,222.6c-1.78,16.11-4.69,32.77-4.69,48.91,0,6.43,3.81,12,15.22,12,8.21,0,21.39-.89,32.52-3.84,10.56,7.63,14.95,19.63,14.95,32,0,43.91-43.07,63.54-133.57,63.54Zm311.65-5.58c-10.27,0-29,0-37.53-.87l-24.31,183.35c-17.86,6.75-46.85,7.62-66.48,7.62-41.29,0-60.92-17-60.92-52.43,0-10.26,2.92-28.12,6.46-53.29l50.67-381.94-43,.88c-6.46-9.38-8.49-21.66-8.49-33.69,0-41.28,36.61-56.23,119.79-56.23,54.49,0,69.41,12.3,64.73,43l-5.55,34.55c25.17-65.31,69.1-79.37,117.72-79.37,91.08,0,131.23,54.18,131.23,155.24,0,147-95.51,233.13-244.28,233.13ZM2371,1065c43.94,0,63.56,25.19,63.56,59.75,0,41.3-29,69.42-77.63,69.42-34.54,0-65.61-12.3-65.61-58C2291.33,1095.71,2321.5,1065,2371,1065Zm-82.31,575.52c-46,0-73.22-17.86-73.22-58,0-15.79,2.91-42.16,5.85-61.79l31.61-182.47-43,.88c-7.63-9.37-9.39-21.66-9.39-33.68,0-41.28,36.61-56.23,119.8-56.23,61.78,0,75,17.86,69.41,56.23l-21.67,145.86c-6.43,43.33-12.91,73.22-12.91,85.23,0,6.72,2.64,13.18,14.08,13.18,8.18,0,23.14-.89,34.54-3.84,10.24,7.63,14.94,18.76,14.94,31.06C2418.73,1620.86,2379.48,1640.47,2288.7,1640.47Zm452.2.89c-35.7,0-60-14.95-60-54.2a97.67,97.67,0,0,1,2-14.94c-22.57,50.39-70.28,68.25-119.8,68.25-87.26,0-137.65-38.39-137.65-145.88,0-161.95,87-246.29,194.49-246.29,40.39,0,65.59,5.57,81.69,17.87l17.58-130.05c7.62-59.16,27.23-73.22,74.12-73.22,26,0,52.4,6.74,68.24,18.73L2807.4,1473c-4.68,32.8-5.85,49.51-5.85,60.92,0,9.36,2.91,15.81,17,15.81,8.5,0,23.46-.89,33.7-3.83,10.24,8.52,14.07,17.91,14.07,32C2866.29,1620.86,2818.53,1641.36,2740.9,1641.36Z"/></svg>